<svg xmlns="http://www.w3.org/2000/svg" xmlns:xlink="http://www.w3.org/1999/xlink" width="140" zoomAndPan="magnify" viewBox="0 0 104.88 30.000001" height="40" preserveAspectRatio="xMidYMid meet" version="1.0"><defs><g/><clipPath id="c00dfc9b7b"><path d="M 5.40625 4.632812 L 12.664062 4.632812 L 12.664062 24.226562 L 5.40625 24.226562 Z M 5.40625 4.632812 " clip-rule="nonzero"/></clipPath></defs><g clip-path="url(#c00dfc9b7b)"><path fill="#000000" d="M 8 12.679688 C 8.027344 12.761719 8.050781 12.84375 8.113281 12.90625 C 8.1875 12.988281 8.15625 13.074219 8.125 13.15625 C 8.097656 13.222656 8.078125 13.285156 8.058594 13.351562 C 8.050781 13.382812 8.039062 13.421875 7.996094 13.421875 C 7.953125 13.421875 7.921875 13.402344 7.902344 13.355469 C 7.835938 13.214844 7.8125 13.070312 7.820312 12.917969 C 7.824219 12.832031 7.796875 12.753906 7.738281 12.691406 C 7.660156 12.601562 7.550781 12.589844 7.441406 12.636719 C 7.378906 12.660156 7.339844 12.703125 7.300781 12.75 C 7.207031 12.855469 7.097656 12.933594 6.953125 12.96875 C 6.886719 12.984375 6.824219 12.980469 6.761719 12.984375 C 6.703125 12.988281 6.679688 12.941406 6.707031 12.890625 C 6.730469 12.851562 6.769531 12.832031 6.808594 12.8125 C 6.835938 12.792969 6.855469 12.773438 6.867188 12.742188 C 6.898438 12.644531 6.953125 12.578125 7.058594 12.542969 C 7.175781 12.507812 7.269531 12.429688 7.347656 12.339844 C 7.367188 12.320312 7.394531 12.296875 7.378906 12.265625 C 7.363281 12.234375 7.335938 12.207031 7.296875 12.207031 C 7.21875 12.203125 7.152344 12.167969 7.074219 12.160156 C 7.050781 12.15625 7.03125 12.140625 7.011719 12.121094 C 6.925781 12.042969 6.878906 11.9375 6.820312 11.84375 C 6.777344 11.769531 6.800781 11.746094 6.871094 11.753906 C 6.898438 11.757812 6.921875 11.746094 6.945312 11.734375 C 7.050781 11.675781 7.152344 11.683594 7.234375 11.773438 C 7.292969 11.835938 7.363281 11.886719 7.4375 11.9375 C 7.449219 11.945312 7.460938 11.953125 7.476562 11.949219 C 7.492188 11.941406 7.496094 11.921875 7.492188 11.90625 C 7.480469 11.863281 7.472656 11.816406 7.449219 11.773438 C 7.398438 11.679688 7.363281 11.582031 7.351562 11.476562 C 7.351562 11.449219 7.359375 11.425781 7.367188 11.402344 C 7.402344 11.332031 7.441406 11.324219 7.503906 11.375 C 7.515625 11.386719 7.527344 11.398438 7.539062 11.40625 C 7.621094 11.457031 7.65625 11.523438 7.632812 11.621094 C 7.628906 11.644531 7.632812 11.667969 7.636719 11.695312 C 7.636719 11.710938 7.632812 11.738281 7.65625 11.742188 C 7.683594 11.75 7.699219 11.726562 7.710938 11.707031 C 7.742188 11.660156 7.765625 11.613281 7.78125 11.558594 C 7.820312 11.441406 7.863281 11.324219 7.90625 11.207031 C 7.933594 11.136719 7.976562 11.074219 8.03125 11.019531 C 8.144531 10.910156 8.257812 10.886719 8.402344 10.953125 C 8.605469 11.050781 8.8125 11.140625 9.003906 11.261719 C 9.011719 11.265625 9.023438 11.273438 9.03125 11.277344 C 9.050781 11.289062 9.0625 11.320312 9.082031 11.308594 C 9.109375 11.296875 9.097656 11.265625 9.101562 11.242188 C 9.113281 11.125 9.097656 11.003906 9.054688 10.890625 C 9.03125 10.828125 8.988281 10.773438 8.960938 10.710938 C 8.902344 10.574219 8.875 10.433594 8.84375 10.292969 C 8.808594 10.128906 8.785156 9.96875 8.769531 9.800781 C 8.757812 9.652344 8.707031 9.507812 8.648438 9.367188 C 8.578125 9.191406 8.507812 9.019531 8.414062 8.851562 C 8.339844 8.714844 8.285156 8.566406 8.1875 8.441406 C 8.175781 8.429688 8.171875 8.40625 8.148438 8.410156 C 8.125 8.414062 8.125 8.433594 8.121094 8.449219 C 8.085938 8.574219 8.054688 8.699219 8.019531 8.820312 C 8.019531 8.828125 8.015625 8.835938 8.011719 8.847656 C 7.953125 8.984375 7.882812 9.023438 7.722656 8.921875 C 7.621094 8.859375 7.511719 8.839844 7.394531 8.863281 C 7.34375 8.875 7.304688 8.898438 7.28125 8.945312 C 7.242188 9.015625 7.1875 9.070312 7.109375 9.097656 C 7.066406 9.113281 7.03125 9.113281 7.011719 9.066406 C 7.007812 9.050781 7 9.035156 6.980469 9.03125 C 6.925781 9.019531 6.949219 8.992188 6.972656 8.972656 C 7.046875 8.914062 7.113281 8.851562 7.175781 8.789062 C 7.222656 8.746094 7.265625 8.703125 7.308594 8.660156 C 7.355469 8.609375 7.347656 8.554688 7.292969 8.519531 C 7.253906 8.496094 7.214844 8.488281 7.171875 8.492188 C 7.078125 8.496094 6.992188 8.472656 6.921875 8.410156 C 6.875 8.371094 6.824219 8.339844 6.769531 8.3125 C 6.753906 8.308594 6.738281 8.304688 6.742188 8.285156 C 6.742188 8.269531 6.757812 8.261719 6.773438 8.257812 C 6.863281 8.253906 6.949219 8.210938 7.039062 8.199219 C 7.132812 8.1875 7.214844 8.199219 7.28125 8.273438 C 7.304688 8.304688 7.339844 8.328125 7.378906 8.335938 C 7.457031 8.359375 7.519531 8.300781 7.503906 8.226562 C 7.480469 8.078125 7.480469 7.933594 7.542969 7.792969 C 7.609375 7.652344 7.601562 7.652344 7.46875 7.570312 C 7.320312 7.472656 7.167969 7.382812 6.996094 7.332031 C 6.859375 7.292969 6.730469 7.246094 6.605469 7.1875 C 6.582031 7.175781 6.554688 7.167969 6.523438 7.160156 C 6.371094 7.121094 6.257812 7.039062 6.191406 6.898438 C 6.140625 6.800781 6.09375 6.699219 6.035156 6.605469 C 6.019531 6.574219 5.996094 6.558594 5.960938 6.550781 C 5.816406 6.527344 5.722656 6.414062 5.742188 6.273438 C 5.75 6.222656 5.738281 6.179688 5.707031 6.136719 C 5.605469 5.984375 5.527344 5.824219 5.472656 5.648438 C 5.40625 5.429688 5.515625 5.25 5.75 5.203125 C 5.9375 5.160156 6.128906 5.175781 6.320312 5.210938 C 6.351562 5.214844 6.375 5.210938 6.40625 5.195312 C 6.53125 5.121094 6.671875 5.152344 6.753906 5.269531 C 6.78125 5.308594 6.816406 5.328125 6.863281 5.328125 C 6.988281 5.332031 7.113281 5.355469 7.234375 5.386719 C 7.324219 5.410156 7.394531 5.46875 7.457031 5.535156 C 7.507812 5.589844 7.558594 5.644531 7.609375 5.699219 C 7.628906 5.71875 7.648438 5.738281 7.679688 5.75 C 7.882812 5.820312 8.03125 5.949219 8.140625 6.125 C 8.21875 6.253906 8.300781 6.378906 8.390625 6.496094 C 8.425781 6.542969 8.46875 6.574219 8.53125 6.570312 C 8.542969 6.570312 8.550781 6.570312 8.5625 6.570312 C 8.703125 6.589844 8.8125 6.539062 8.886719 6.425781 C 8.964844 6.3125 9.054688 6.214844 9.167969 6.136719 C 9.191406 6.121094 9.199219 6.101562 9.199219 6.074219 C 9.1875 5.894531 9.179688 5.714844 9.152344 5.535156 C 9.144531 5.496094 9.128906 5.472656 9.085938 5.464844 C 9 5.453125 8.914062 5.441406 8.828125 5.4375 C 8.816406 5.433594 8.808594 5.4375 8.800781 5.433594 C 8.777344 5.433594 8.753906 5.433594 8.746094 5.40625 C 8.742188 5.382812 8.761719 5.371094 8.78125 5.359375 C 8.820312 5.335938 8.859375 5.308594 8.898438 5.285156 C 8.914062 5.277344 8.933594 5.265625 8.933594 5.246094 C 8.929688 5.226562 8.90625 5.230469 8.886719 5.222656 C 8.871094 5.21875 8.851562 5.214844 8.832031 5.210938 C 8.730469 5.1875 8.683594 5.109375 8.710938 5.011719 C 8.722656 4.964844 8.757812 4.945312 8.800781 4.964844 C 8.871094 4.992188 8.941406 5.019531 9 5.070312 C 9.023438 5.09375 9.042969 5.101562 9.058594 5.0625 C 9.0625 5.054688 9.070312 5.046875 9.074219 5.039062 C 9.128906 4.949219 9.203125 4.898438 9.3125 4.914062 C 9.378906 4.921875 9.421875 4.90625 9.449219 4.84375 C 9.464844 4.804688 9.5 4.773438 9.527344 4.742188 C 9.582031 4.683594 9.71875 4.648438 9.796875 4.671875 C 9.828125 4.683594 9.835938 4.707031 9.835938 4.734375 C 9.832031 4.792969 9.804688 4.84375 9.765625 4.886719 C 9.726562 4.941406 9.679688 4.992188 9.636719 5.042969 C 9.625 5.058594 9.609375 5.078125 9.628906 5.09375 C 9.640625 5.109375 9.65625 5.089844 9.671875 5.085938 C 9.726562 5.0625 9.785156 5.042969 9.847656 5.035156 C 9.917969 5.023438 9.972656 5.039062 10.015625 5.097656 C 10.042969 5.132812 10.074219 5.160156 10.101562 5.1875 C 10.125 5.214844 10.121094 5.234375 10.085938 5.25 C 10.046875 5.265625 10.007812 5.265625 9.964844 5.265625 C 9.878906 5.261719 9.792969 5.261719 9.707031 5.273438 C 9.679688 5.277344 9.652344 5.285156 9.628906 5.292969 C 9.539062 5.332031 9.519531 5.402344 9.574219 5.476562 C 9.675781 5.609375 9.777344 5.738281 9.867188 5.875 C 9.957031 6.011719 10.019531 6.15625 9.992188 6.320312 C 9.972656 6.472656 9.882812 6.589844 9.753906 6.675781 C 9.675781 6.730469 9.589844 6.777344 9.515625 6.839844 C 9.378906 6.957031 9.347656 7.101562 9.4375 7.257812 C 9.519531 7.40625 9.613281 7.546875 9.691406 7.699219 C 9.746094 7.808594 9.800781 7.917969 9.886719 8.011719 C 9.921875 8.050781 9.957031 8.089844 9.996094 8.125 C 10.195312 8.292969 10.332031 8.507812 10.46875 8.722656 C 10.585938 8.910156 10.679688 9.105469 10.761719 9.308594 C 10.8125 9.4375 10.855469 9.570312 10.894531 9.703125 C 10.960938 9.925781 11.003906 10.15625 11.015625 10.390625 C 11.027344 10.578125 11.019531 10.757812 11.003906 10.941406 C 10.984375 11.097656 10.941406 11.25 10.910156 11.402344 C 10.871094 11.570312 10.816406 11.730469 10.8125 11.90625 C 10.808594 11.976562 10.792969 12.046875 10.800781 12.117188 C 10.804688 12.15625 10.824219 12.175781 10.855469 12.195312 C 11.066406 12.335938 11.265625 12.492188 11.445312 12.664062 C 11.632812 12.84375 11.789062 13.046875 11.878906 13.289062 C 11.910156 13.378906 11.90625 13.480469 11.875 13.570312 C 11.859375 13.613281 11.867188 13.664062 11.839844 13.707031 C 11.839844 13.703125 11.84375 13.699219 11.84375 13.695312 C 11.84375 13.699219 11.839844 13.703125 11.839844 13.707031 C 11.835938 13.792969 11.804688 13.878906 11.78125 13.964844 C 11.761719 14.050781 11.757812 14.140625 11.773438 14.246094 C 11.8125 14.1875 11.847656 14.140625 11.878906 14.097656 C 11.898438 14.074219 11.917969 14.054688 11.9375 14.035156 C 11.996094 13.984375 12.058594 13.984375 12.132812 14.039062 C 12.179688 14.074219 12.195312 14.140625 12.167969 14.203125 C 12.117188 14.3125 12.042969 14.40625 11.960938 14.496094 C 11.953125 14.503906 11.9375 14.511719 11.945312 14.527344 C 11.953125 14.539062 11.96875 14.53125 11.980469 14.53125 C 12.09375 14.539062 12.191406 14.488281 12.292969 14.457031 C 12.367188 14.4375 12.445312 14.445312 12.519531 14.453125 C 12.542969 14.457031 12.554688 14.46875 12.5625 14.488281 C 12.574219 14.53125 12.597656 14.566406 12.632812 14.59375 C 12.65625 14.613281 12.667969 14.640625 12.65625 14.667969 C 12.648438 14.695312 12.621094 14.703125 12.59375 14.710938 C 12.460938 14.742188 12.328125 14.746094 12.203125 14.792969 C 12.132812 14.820312 12.0625 14.851562 12.003906 14.898438 C 11.9375 14.953125 11.9375 15.003906 12 15.0625 C 12.09375 15.144531 12.191406 15.21875 12.277344 15.304688 C 12.363281 15.390625 12.460938 15.476562 12.457031 15.613281 C 12.453125 15.644531 12.46875 15.667969 12.492188 15.6875 C 12.507812 15.703125 12.511719 15.722656 12.496094 15.742188 C 12.484375 15.753906 12.46875 15.765625 12.449219 15.757812 C 12.355469 15.707031 12.25 15.695312 12.148438 15.667969 C 12.058594 15.640625 12 15.578125 11.953125 15.503906 C 11.925781 15.464844 11.890625 15.425781 11.859375 15.390625 C 11.808594 15.332031 11.757812 15.265625 11.695312 15.21875 C 11.652344 15.183594 11.605469 15.164062 11.554688 15.152344 C 11.519531 15.148438 11.480469 15.160156 11.460938 15.195312 C 11.4375 15.242188 11.433594 15.289062 11.464844 15.332031 C 11.511719 15.394531 11.546875 15.457031 11.527344 15.535156 C 11.515625 15.589844 11.523438 15.648438 11.480469 15.695312 C 11.457031 15.722656 11.484375 15.757812 11.496094 15.785156 C 11.507812 15.8125 11.515625 15.839844 11.527344 15.867188 C 11.539062 15.894531 11.535156 15.921875 11.511719 15.941406 C 11.488281 15.960938 11.464844 15.957031 11.4375 15.941406 C 11.324219 15.875 11.257812 15.785156 11.246094 15.652344 C 11.234375 15.53125 11.207031 15.414062 11.195312 15.292969 C 11.175781 15.09375 11.078125 14.914062 11.035156 14.722656 C 10.992188 14.523438 10.992188 14.332031 11.042969 14.140625 C 11.082031 13.988281 11.117188 13.835938 11.125 13.679688 C 11.128906 13.632812 11.105469 13.601562 11.066406 13.585938 C 10.992188 13.550781 10.917969 13.523438 10.847656 13.492188 C 10.757812 13.453125 10.667969 13.417969 10.585938 13.367188 C 10.523438 13.328125 10.449219 13.308594 10.398438 13.25 C 10.382812 13.234375 10.359375 13.234375 10.351562 13.261719 C 10.296875 13.410156 10.25 13.558594 10.226562 13.714844 C 10.207031 13.851562 10.238281 13.984375 10.246094 14.117188 C 10.246094 14.179688 10.238281 14.25 10.226562 14.3125 C 10.191406 14.507812 10.175781 14.707031 10.171875 14.902344 C 10.167969 15.042969 10.171875 15.1875 10.203125 15.328125 C 10.207031 15.347656 10.207031 15.363281 10.207031 15.382812 C 10.203125 15.527344 10.246094 15.667969 10.273438 15.808594 C 10.296875 15.925781 10.324219 16.042969 10.355469 16.15625 C 10.375 16.25 10.40625 16.34375 10.4375 16.4375 C 10.464844 16.511719 10.496094 16.589844 10.511719 16.667969 C 10.53125 16.742188 10.570312 16.8125 10.582031 16.886719 C 10.601562 16.972656 10.640625 17.050781 10.667969 17.132812 C 10.710938 17.257812 10.75 17.382812 10.792969 17.503906 C 10.855469 17.675781 10.914062 17.847656 10.96875 18.023438 C 11.027344 18.210938 11.089844 18.398438 11.144531 18.589844 C 11.191406 18.757812 11.238281 18.929688 11.28125 19.101562 C 11.3125 19.21875 11.335938 19.339844 11.359375 19.460938 C 11.429688 19.796875 11.476562 20.136719 11.492188 20.480469 C 11.511719 20.851562 11.488281 21.214844 11.394531 21.574219 C 11.335938 21.804688 11.230469 22.015625 11.121094 22.226562 C 11 22.445312 10.863281 22.652344 10.707031 22.847656 C 10.5 23.105469 10.265625 23.335938 9.984375 23.515625 C 9.777344 23.65625 9.542969 23.753906 9.304688 23.84375 C 9.074219 23.929688 8.847656 24.027344 8.632812 24.15625 C 8.574219 24.191406 8.503906 24.210938 8.433594 24.199219 C 8.371094 24.195312 8.363281 24.167969 8.398438 24.125 C 8.496094 24.007812 8.601562 23.894531 8.726562 23.804688 C 9.050781 23.566406 9.367188 23.324219 9.691406 23.089844 C 10.058594 22.828125 10.335938 22.492188 10.535156 22.089844 C 10.695312 21.761719 10.777344 21.40625 10.820312 21.046875 C 10.839844 20.863281 10.851562 20.6875 10.847656 20.503906 C 10.839844 20.257812 10.804688 20.011719 10.742188 19.769531 C 10.671875 19.492188 10.578125 19.226562 10.472656 18.964844 C 10.371094 18.710938 10.257812 18.464844 10.132812 18.222656 C 10.023438 18 9.914062 17.78125 9.808594 17.558594 C 9.730469 17.390625 9.648438 17.222656 9.585938 17.050781 C 9.480469 16.765625 9.355469 16.484375 9.265625 16.195312 C 9.222656 16.042969 9.171875 15.898438 9.132812 15.746094 C 9.09375 15.609375 9.058594 15.472656 9.03125 15.332031 C 9.007812 15.222656 8.984375 15.109375 8.964844 15 C 8.933594 14.832031 8.917969 14.667969 8.894531 14.5 C 8.867188 14.253906 8.855469 14.007812 8.863281 13.761719 C 8.867188 13.527344 8.898438 13.296875 8.917969 13.066406 C 8.933594 12.910156 8.945312 12.757812 8.957031 12.605469 C 8.964844 12.535156 8.933594 12.515625 8.882812 12.488281 C 8.816406 12.453125 8.777344 12.382812 8.730469 12.324219 C 8.648438 12.226562 8.5625 12.128906 8.476562 12.035156 C 8.445312 12.003906 8.425781 12.011719 8.40625 12.050781 C 8.351562 12.175781 8.289062 12.296875 8.214844 12.414062 C 8.191406 12.449219 8.160156 12.484375 8.128906 12.515625 C 8.09375 12.554688 8.070312 12.605469 8.011719 12.621094 C 7.992188 12.628906 7.992188 12.65625 8 12.679688 Z M 8 12.679688 " fill-opacity="1" fill-rule="nonzero"/></g><path fill="#000000" d="M 11.84375 13.695312 C 11.84375 13.699219 11.839844 13.703125 11.839844 13.707031 C 11.839844 13.703125 11.84375 13.699219 11.84375 13.695312 Z M 11.84375 13.695312 " fill-opacity="1" fill-rule="nonzero"/><g fill="#000000" fill-opacity="1"><g transform="translate(15.624781, 19.010651)"><g><path d="M 1.71875 -10.546875 C 2.332031 -10.804688 2.929688 -10.9375 3.515625 -10.9375 C 3.992188 -10.9375 4.484375 -10.757812 4.984375 -10.40625 C 5.265625 -10.21875 5.578125 -9.84375 5.921875 -9.28125 C 6.148438 -8.90625 6.441406 -8.210938 6.796875 -7.203125 L 8.546875 -2.234375 C 8.953125 -1.117188 9.363281 -0.234375 9.78125 0.421875 C 10.195312 1.078125 10.578125 1.570312 10.921875 1.90625 C 11.265625 2.238281 11.625 2.46875 12 2.59375 C 12.375 2.726562 12.679688 2.796875 12.921875 2.796875 C 13.171875 2.796875 13.390625 2.78125 13.578125 2.75 L 13.59375 2.890625 C 13.132812 3.046875 12.6875 3.125 12.25 3.125 C 11.8125 3.125 11.367188 3.007812 10.921875 2.78125 C 10.484375 2.550781 10.070312 2.238281 9.6875 1.84375 C 8.863281 1.007812 8.164062 -0.257812 7.59375 -1.96875 L 7.03125 -3.609375 L 3.09375 -3.609375 L 2.09375 -1.046875 C 2.050781 -0.929688 2.03125 -0.816406 2.03125 -0.703125 C 2.03125 -0.585938 2.078125 -0.460938 2.171875 -0.328125 C 2.273438 -0.203125 2.429688 -0.140625 2.640625 -0.140625 L 2.765625 -0.140625 L 2.765625 0 L -0.125 0 L -0.125 -0.140625 L 0 -0.140625 C 0.226562 -0.140625 0.453125 -0.207031 0.671875 -0.34375 C 0.890625 -0.488281 1.070312 -0.703125 1.21875 -0.984375 L 4.78125 -9.515625 C 4.269531 -10.253906 3.628906 -10.625 2.859375 -10.625 C 2.515625 -10.625 2.144531 -10.550781 1.75 -10.40625 Z M 3.25 -4.046875 L 6.890625 -4.046875 L 5.75 -7.390625 C 5.53125 -8.035156 5.328125 -8.535156 5.140625 -8.890625 Z M 3.25 -4.046875 "/></g></g></g><g fill="#000000" fill-opacity="1"><g transform="translate(25.85504, 19.010651)"><g><path d="M 15.8125 2.328125 C 15.875 2.328125 15.929688 2.328125 15.984375 2.328125 L 15.984375 2.46875 C 15.710938 2.507812 15.410156 2.53125 15.078125 2.53125 C 14.753906 2.53125 14.347656 2.457031 13.859375 2.3125 C 13.378906 2.164062 12.941406 1.898438 12.546875 1.515625 C 11.742188 0.703125 11.253906 -0.34375 11.078125 -1.625 L 10.203125 -8.015625 L 7.21875 -1.265625 C 6.945312 -0.679688 6.785156 -0.191406 6.734375 0.203125 L 6.578125 0.203125 L 2.859375 -7.890625 L 2.234375 -0.75 C 2.210938 -0.582031 2.257812 -0.4375 2.375 -0.3125 C 2.5 -0.1875 2.632812 -0.125 2.78125 -0.125 L 3 -0.125 L 3 0 L 0.21875 0 L 0.21875 -0.140625 L 0.453125 -0.140625 C 0.703125 -0.140625 0.925781 -0.21875 1.125 -0.375 C 1.320312 -0.539062 1.445312 -0.75 1.5 -1 L 2.40625 -8.859375 C 1.5625 -10.515625 0.550781 -11.34375 -0.625 -11.34375 C -0.738281 -11.34375 -0.851562 -11.335938 -0.96875 -11.328125 L -0.96875 -11.46875 C -0.707031 -11.539062 -0.492188 -11.578125 -0.328125 -11.578125 C -0.171875 -11.578125 0 -11.566406 0.1875 -11.546875 C 0.382812 -11.535156 0.613281 -11.488281 0.875 -11.40625 C 1.132812 -11.332031 1.378906 -11.222656 1.609375 -11.078125 C 1.835938 -10.929688 2.035156 -10.773438 2.203125 -10.609375 C 2.378906 -10.453125 2.546875 -10.28125 2.703125 -10.09375 C 2.960938 -9.75 3.171875 -9.414062 3.328125 -9.09375 L 6.78125 -1.59375 L 10.65625 -10.265625 L 10.78125 -10.265625 L 12.125 -1.75 C 12.320312 -0.40625 12.753906 0.609375 13.421875 1.296875 C 14.085938 1.984375 14.882812 2.328125 15.8125 2.328125 Z M 15.8125 2.328125 "/></g></g></g><g fill="#000000" fill-opacity="1"><g transform="translate(39.23197, 19.010651)"><g><path d="M 5.0625 -10.296875 C 5.894531 -10.296875 6.585938 -10.09375 7.140625 -9.6875 C 7.890625 -9.15625 8.265625 -8.316406 8.265625 -7.171875 C 8.265625 -6.347656 8.035156 -5.644531 7.578125 -5.0625 C 7.078125 -4.4375 6.378906 -4.125 5.484375 -4.125 C 5.015625 -4.125 4.585938 -4.234375 4.203125 -4.453125 C 3.828125 -4.679688 3.601562 -5.070312 3.53125 -5.625 L 3.671875 -5.65625 C 3.773438 -5.25 4.019531 -4.960938 4.40625 -4.796875 C 4.65625 -4.679688 4.882812 -4.625 5.09375 -4.625 C 5.875 -4.625 6.441406 -4.929688 6.796875 -5.546875 C 7.054688 -5.992188 7.1875 -6.53125 7.1875 -7.15625 C 7.1875 -8.15625 6.910156 -8.875 6.359375 -9.3125 C 5.929688 -9.65625 5.394531 -9.828125 4.75 -9.828125 C 4.59375 -9.828125 4.457031 -9.820312 4.34375 -9.8125 C 4.238281 -9.800781 3.757812 -9.722656 2.90625 -9.578125 L 2.90625 -1.046875 C 2.914062 -0.785156 3.007812 -0.566406 3.1875 -0.390625 C 3.375 -0.222656 3.585938 -0.140625 3.828125 -0.140625 L 4.015625 -0.140625 L 4.015625 0 L 0.859375 0 L 0.859375 -0.140625 L 1.046875 -0.140625 C 1.285156 -0.140625 1.492188 -0.222656 1.671875 -0.390625 C 1.859375 -0.566406 1.957031 -0.785156 1.96875 -1.046875 L 1.96875 -8.828125 C 1.96875 -9.078125 1.894531 -9.269531 1.75 -9.40625 C 1.601562 -9.539062 1.414062 -9.609375 1.1875 -9.609375 C 1.144531 -9.609375 1.097656 -9.609375 1.046875 -9.609375 L 0.875 -9.59375 L 0.84375 -9.734375 C 1.34375 -9.773438 2.007812 -9.863281 2.84375 -10 C 3.6875 -10.144531 4.207031 -10.226562 4.40625 -10.25 C 4.613281 -10.28125 4.832031 -10.296875 5.0625 -10.296875 Z M 5.0625 -10.296875 "/></g></g></g><g fill="#000000" fill-opacity="1"><g transform="translate(48.140346, 19.010651)"><g><path d="M 3.59375 0.265625 C 5.632812 0.984375 7.164062 1.46875 8.1875 1.71875 C 9.207031 1.96875 10.082031 2.09375 10.8125 2.09375 C 11.550781 2.09375 12.359375 1.925781 13.234375 1.59375 L 13.3125 1.703125 C 12.144531 2.515625 10.96875 2.921875 9.78125 2.921875 C 8.5625 2.921875 7.175781 2.539062 5.625 1.78125 C 4.425781 1.1875 3.679688 0.828125 3.390625 0.703125 C 2.367188 0.242188 1.523438 0.0078125 0.859375 0 L 0.859375 -0.140625 L 1.046875 -0.140625 C 1.296875 -0.140625 1.507812 -0.222656 1.6875 -0.390625 C 1.863281 -0.566406 1.957031 -0.785156 1.96875 -1.046875 L 1.96875 -9.015625 C 1.957031 -9.265625 1.863281 -9.476562 1.6875 -9.65625 C 1.507812 -9.832031 1.296875 -9.921875 1.046875 -9.921875 L 0.859375 -9.921875 L 0.859375 -10.0625 L 4.015625 -10.0625 L 4.015625 -9.921875 L 3.828125 -9.921875 C 3.578125 -9.921875 3.359375 -9.832031 3.171875 -9.65625 C 2.992188 -9.476562 2.90625 -9.265625 2.90625 -9.015625 L 2.90625 -0.71875 C 2.90625 -0.539062 2.914062 -0.40625 2.9375 -0.3125 C 2.957031 -0.226562 3.019531 -0.128906 3.125 -0.015625 C 3.226562 0.0976562 3.382812 0.191406 3.59375 0.265625 Z M 3.59375 0.265625 "/></g></g></g><g fill="#000000" fill-opacity="1"><g transform="translate(53.902049, 19.010651)"><g><path d="M 4.625 -0.140625 L 4.8125 -0.140625 L 4.8125 0 L 1.671875 0 L 1.671875 -0.140625 L 1.859375 -0.140625 C 2.109375 -0.140625 2.320312 -0.226562 2.5 -0.40625 C 2.6875 -0.582031 2.78125 -0.796875 2.78125 -1.046875 L 2.78125 -9.671875 L 1.234375 -9.59375 C 0.265625 -9.53125 -0.21875 -9.175781 -0.21875 -8.53125 C -0.21875 -8.28125 -0.132812 -8.0625 0.03125 -7.875 C 0.195312 -7.695312 0.460938 -7.597656 0.828125 -7.578125 L 0.828125 -7.484375 C 0.703125 -7.460938 0.570312 -7.453125 0.4375 -7.453125 C 0.0078125 -7.453125 -0.304688 -7.617188 -0.515625 -7.953125 C -0.640625 -8.140625 -0.703125 -8.347656 -0.703125 -8.578125 C -0.703125 -9.390625 -0.0820312 -9.863281 1.15625 -10 C 1.164062 -10 1.640625 -10.03125 2.578125 -10.09375 C 3.523438 -10.15625 4.269531 -10.238281 4.8125 -10.34375 L 4.84375 -10.203125 C 4.4375 -10.140625 4.144531 -10 3.96875 -9.78125 C 3.789062 -9.570312 3.703125 -9.28125 3.703125 -8.90625 L 3.703125 -1.046875 C 3.710938 -0.796875 3.804688 -0.582031 3.984375 -0.40625 C 4.160156 -0.226562 4.375 -0.140625 4.625 -0.140625 Z M 4.625 -0.140625 "/></g></g></g><g fill="#000000" fill-opacity="1"><g transform="translate(59.548811, 19.010651)"><g><path d="M 14.3125 1.28125 C 13.425781 2.3125 12.226562 2.828125 10.71875 2.828125 C 9.570312 2.828125 8.398438 2.628906 7.203125 2.234375 C 5.835938 1.765625 4.765625 1.359375 3.984375 1.015625 C 2.503906 0.367188 1.519531 0.03125 1.03125 0 L 0.859375 0 L 0.859375 -0.125 L 6.90625 -9.640625 L 2.0625 -9.640625 C 1.726562 -9.628906 1.484375 -9.488281 1.328125 -9.21875 C 1.242188 -9.082031 1.203125 -8.9375 1.203125 -8.78125 L 1.203125 -8.53125 L 1.0625 -8.53125 L 1.0625 -10.328125 C 1.207031 -10.273438 1.460938 -10.21875 1.828125 -10.15625 C 2.191406 -10.101562 2.441406 -10.078125 2.578125 -10.078125 C 2.710938 -10.078125 2.785156 -10.078125 2.796875 -10.078125 L 6.8125 -10.078125 C 7.21875 -10.078125 7.554688 -10.097656 7.828125 -10.140625 C 8.109375 -10.191406 8.28125 -10.234375 8.34375 -10.265625 L 8.34375 -10.140625 L 2.0625 -0.21875 C 2.144531 -0.195312 2.65625 -0.0351562 3.59375 0.265625 C 6.875 1.347656 9.300781 1.890625 10.875 1.890625 C 12.09375 1.890625 13.21875 1.648438 14.25 1.171875 Z M 14.3125 1.28125 "/></g></g></g><g fill="#000000" fill-opacity="1"><g transform="translate(68.687084, 19.010651)"><g><path d="M 1.71875 -10.546875 C 2.332031 -10.804688 2.929688 -10.9375 3.515625 -10.9375 C 3.992188 -10.9375 4.484375 -10.757812 4.984375 -10.40625 C 5.265625 -10.21875 5.578125 -9.84375 5.921875 -9.28125 C 6.148438 -8.90625 6.441406 -8.210938 6.796875 -7.203125 L 8.546875 -2.234375 C 8.953125 -1.117188 9.363281 -0.234375 9.78125 0.421875 C 10.195312 1.078125 10.578125 1.570312 10.921875 1.90625 C 11.265625 2.238281 11.625 2.46875 12 2.59375 C 12.375 2.726562 12.679688 2.796875 12.921875 2.796875 C 13.171875 2.796875 13.390625 2.78125 13.578125 2.75 L 13.59375 2.890625 C 13.132812 3.046875 12.6875 3.125 12.25 3.125 C 11.8125 3.125 11.367188 3.007812 10.921875 2.78125 C 10.484375 2.550781 10.070312 2.238281 9.6875 1.84375 C 8.863281 1.007812 8.164062 -0.257812 7.59375 -1.96875 L 7.03125 -3.609375 L 3.09375 -3.609375 L 2.09375 -1.046875 C 2.050781 -0.929688 2.03125 -0.816406 2.03125 -0.703125 C 2.03125 -0.585938 2.078125 -0.460938 2.171875 -0.328125 C 2.273438 -0.203125 2.429688 -0.140625 2.640625 -0.140625 L 2.765625 -0.140625 L 2.765625 0 L -0.125 0 L -0.125 -0.140625 L 0 -0.140625 C 0.226562 -0.140625 0.453125 -0.207031 0.671875 -0.34375 C 0.890625 -0.488281 1.070312 -0.703125 1.21875 -0.984375 L 4.78125 -9.515625 C 4.269531 -10.253906 3.628906 -10.625 2.859375 -10.625 C 2.515625 -10.625 2.144531 -10.550781 1.75 -10.40625 Z M 3.25 -4.046875 L 6.890625 -4.046875 L 5.75 -7.390625 C 5.53125 -8.035156 5.328125 -8.535156 5.140625 -8.890625 Z M 3.25 -4.046875 "/></g></g></g><g fill="#000000" fill-opacity="1"><g transform="translate(78.917343, 19.010651)"><g><path d="M 13.625 2.4375 C 13.226562 2.550781 12.875 2.609375 12.5625 2.609375 C 12.25 2.609375 11.972656 2.585938 11.734375 2.546875 C 11.492188 2.503906 11.234375 2.425781 10.953125 2.3125 C 10.679688 2.207031 10.425781 2.082031 10.1875 1.9375 C 9.945312 1.789062 9.707031 1.613281 9.46875 1.40625 C 9.03125 1.050781 8.628906 0.664062 8.265625 0.25 C 7.910156 -0.15625 7.21875 -0.925781 6.1875 -2.0625 C 5.164062 -3.195312 4.488281 -3.953125 4.15625 -4.328125 C 3.820312 -4.703125 3.5625 -4.898438 3.375 -4.921875 L 3.375 -5.0625 C 3.9375 -5.0625 4.304688 -5.070312 4.484375 -5.09375 C 4.671875 -5.113281 4.867188 -5.15625 5.078125 -5.21875 C 5.296875 -5.28125 5.476562 -5.367188 5.625 -5.484375 C 6.1875 -5.835938 6.46875 -6.4375 6.46875 -7.28125 C 6.46875 -7.988281 6.3125 -8.550781 6 -8.96875 C 5.6875 -9.394531 5.25 -9.609375 4.6875 -9.609375 L 2.90625 -9.609375 L 2.90625 -1.046875 C 2.90625 -0.804688 2.992188 -0.59375 3.171875 -0.40625 C 3.347656 -0.226562 3.566406 -0.140625 3.828125 -0.140625 L 4 -0.140625 L 4.015625 0 L 0.859375 0 L 0.859375 -0.140625 L 1.046875 -0.140625 C 1.285156 -0.140625 1.492188 -0.222656 1.671875 -0.390625 C 1.859375 -0.566406 1.957031 -0.78125 1.96875 -1.03125 L 1.96875 -9.015625 C 1.957031 -9.265625 1.863281 -9.476562 1.6875 -9.65625 C 1.507812 -9.832031 1.296875 -9.921875 1.046875 -9.921875 L 0.859375 -9.921875 L 0.859375 -10.0625 L 4.75 -10.0625 C 5.59375 -10.0625 6.269531 -9.820312 6.78125 -9.34375 C 7.289062 -8.875 7.546875 -8.25 7.546875 -7.46875 C 7.546875 -6.6875 7.3125 -6.015625 6.84375 -5.453125 C 6.375 -4.890625 5.800781 -4.609375 5.125 -4.609375 C 5.125 -4.609375 5.117188 -4.609375 5.109375 -4.609375 C 5.429688 -4.265625 5.796875 -3.863281 6.203125 -3.40625 C 7.867188 -1.570312 8.9375 -0.421875 9.40625 0.046875 C 9.875 0.515625 10.285156 0.898438 10.640625 1.203125 C 11.003906 1.503906 11.320312 1.726562 11.59375 1.875 C 12.164062 2.175781 12.726562 2.328125 13.28125 2.328125 C 13.394531 2.328125 13.507812 2.316406 13.625 2.296875 Z M 13.625 2.4375 "/></g></g></g><g fill="#000000" fill-opacity="1"><g transform="translate(88.285512, 19.010651)"><g><path d="M -1.4375 -7.96875 C -1.15625 -8.78125 -0.6875 -9.335938 -0.03125 -9.640625 C 0.613281 -9.953125 1.765625 -10.109375 3.421875 -10.109375 C 3.765625 -10.109375 4.632812 -10.09375 6.03125 -10.0625 C 7.050781 -10.03125 7.945312 -9.804688 8.71875 -9.390625 C 9.5 -8.984375 10.109375 -8.40625 10.546875 -7.65625 C 10.984375 -6.90625 11.203125 -6.03125 11.203125 -5.03125 C 11.203125 -3.53125 10.722656 -2.316406 9.765625 -1.390625 C 8.816406 -0.460938 7.570312 0 6.03125 0 L 1.171875 0 L 1.171875 -0.140625 L 1.34375 -0.140625 C 1.582031 -0.140625 1.789062 -0.21875 1.96875 -0.375 C 2.144531 -0.539062 2.242188 -0.738281 2.265625 -0.96875 L 2.265625 -9.625 C 1.066406 -9.601562 0.222656 -9.421875 -0.265625 -9.078125 C -0.523438 -8.890625 -0.722656 -8.710938 -0.859375 -8.546875 C -0.992188 -8.378906 -1.132812 -8.164062 -1.28125 -7.90625 Z M 3.203125 -9.625 L 3.203125 -0.4375 L 6.03125 -0.4375 C 7.25 -0.4375 8.234375 -0.859375 8.984375 -1.703125 C 9.742188 -2.546875 10.125 -3.65625 10.125 -5.03125 C 10.125 -5.9375 9.953125 -6.738281 9.609375 -7.4375 C 9.265625 -8.132812 8.785156 -8.671875 8.171875 -9.046875 C 7.554688 -9.429688 6.84375 -9.625 6.03125 -9.625 Z M 3.203125 -9.625 "/></g></g></g></svg>