<svg xmlns="http://www.w3.org/2000/svg" xmlns:xlink="http://www.w3.org/1999/xlink" width="170" zoomAndPan="magnify" viewBox="0 0 127.5 149.999998" height="200" preserveAspectRatio="xMidYMid meet" version="1.0"><defs><g/><clipPath id="aaa767e837"><path d="M 33.613281 95.023438 L 93.378906 95.023438 L 93.378906 116.6875 L 33.613281 116.6875 Z M 33.613281 95.023438 " clip-rule="nonzero"/></clipPath></defs><g clip-path="url(#aaa767e837)"><path fill="#000000" d="M 58.148438 108.949219 C 58.398438 108.871094 58.652344 108.792969 58.851562 108.617188 C 59.097656 108.390625 59.359375 108.480469 59.609375 108.582031 C 59.804688 108.65625 60.003906 108.722656 60.203125 108.777344 C 60.300781 108.804688 60.417969 108.835938 60.417969 108.964844 C 60.417969 109.09375 60.359375 109.183594 60.222656 109.246094 C 59.792969 109.4375 59.351562 109.515625 58.882812 109.488281 C 58.625 109.472656 58.386719 109.554688 58.1875 109.730469 C 57.921875 109.964844 57.878906 110.289062 58.019531 110.613281 C 58.097656 110.800781 58.230469 110.921875 58.371094 111.042969 C 58.691406 111.320312 58.925781 111.644531 59.03125 112.078125 C 59.078125 112.269531 59.066406 112.457031 59.082031 112.648438 C 59.097656 112.824219 58.953125 112.890625 58.800781 112.804688 C 58.679688 112.738281 58.621094 112.621094 58.558594 112.511719 C 58.503906 112.421875 58.4375 112.367188 58.339844 112.335938 C 58.050781 112.242188 57.839844 112.078125 57.738281 111.765625 C 57.628906 111.414062 57.390625 111.136719 57.121094 110.894531 C 57.058594 110.839844 56.988281 110.761719 56.894531 110.800781 C 56.792969 110.847656 56.714844 110.9375 56.710938 111.050781 C 56.703125 111.28125 56.59375 111.484375 56.566406 111.710938 C 56.558594 111.785156 56.503906 111.84375 56.449219 111.898438 C 56.207031 112.152344 55.890625 112.292969 55.597656 112.46875 C 55.378906 112.601562 55.300781 112.527344 55.328125 112.316406 C 55.335938 112.238281 55.304688 112.171875 55.265625 112.105469 C 55.085938 111.785156 55.117188 111.480469 55.382812 111.238281 C 55.582031 111.058594 55.734375 110.851562 55.886719 110.636719 C 55.914062 110.597656 55.9375 110.5625 55.917969 110.515625 C 55.894531 110.460938 55.84375 110.457031 55.796875 110.464844 C 55.65625 110.496094 55.519531 110.523438 55.386719 110.59375 C 55.105469 110.746094 54.800781 110.855469 54.476562 110.878906 C 54.402344 110.886719 54.328125 110.867188 54.257812 110.835938 C 54.042969 110.730469 54.019531 110.621094 54.171875 110.433594 C 54.203125 110.398438 54.238281 110.363281 54.265625 110.320312 C 54.421875 110.078125 54.628906 109.972656 54.921875 110.046875 C 54.988281 110.0625 55.070312 110.046875 55.144531 110.039062 C 55.199219 110.03125 55.277344 110.046875 55.292969 109.976562 C 55.3125 109.898438 55.25 109.847656 55.1875 109.808594 C 55.046875 109.722656 54.894531 109.65625 54.738281 109.601562 C 54.375 109.484375 54.015625 109.363281 53.65625 109.234375 C 53.441406 109.152344 53.25 109.023438 53.085938 108.855469 C 52.75 108.519531 52.679688 108.179688 52.882812 107.753906 C 53.179688 107.144531 53.449219 106.519531 53.820312 105.953125 C 53.839844 105.925781 53.859375 105.898438 53.875 105.871094 C 53.90625 105.816406 54 105.78125 53.972656 105.71875 C 53.9375 105.632812 53.839844 105.675781 53.769531 105.667969 C 53.402344 105.625 53.042969 105.675781 52.695312 105.800781 C 52.503906 105.871094 52.332031 105.996094 52.140625 106.078125 C 51.726562 106.25 51.292969 106.339844 50.863281 106.433594 C 50.371094 106.542969 49.871094 106.601562 49.371094 106.648438 C 48.910156 106.691406 48.472656 106.847656 48.042969 107.011719 C 47.507812 107.222656 46.976562 107.4375 46.460938 107.710938 C 46.042969 107.933594 45.59375 108.101562 45.210938 108.394531 C 45.171875 108.425781 45.105469 108.4375 45.113281 108.507812 C 45.125 108.578125 45.191406 108.574219 45.242188 108.589844 C 45.617188 108.691406 45.996094 108.789062 46.375 108.890625 C 46.398438 108.894531 46.421875 108.90625 46.449219 108.917969 C 46.871094 109.085938 46.988281 109.300781 46.6875 109.777344 C 46.488281 110.085938 46.429688 110.410156 46.5 110.761719 C 46.53125 110.910156 46.613281 111.023438 46.75 111.101562 C 46.960938 111.214844 47.132812 111.375 47.222656 111.609375 C 47.269531 111.742188 47.265625 111.84375 47.117188 111.894531 C 47.070312 111.914062 47.027344 111.929688 47.015625 111.988281 C 46.980469 112.160156 46.894531 112.089844 46.832031 112.011719 C 46.660156 111.800781 46.46875 111.601562 46.277344 111.410156 C 46.140625 111.277344 46.011719 111.144531 45.875 111.011719 C 45.730469 110.871094 45.554688 110.894531 45.445312 111.066406 C 45.378906 111.175781 45.363281 111.296875 45.367188 111.425781 C 45.382812 111.707031 45.308594 111.960938 45.117188 112.167969 C 44.992188 112.304688 44.898438 112.460938 44.824219 112.628906 C 44.804688 112.667969 44.792969 112.714844 44.734375 112.707031 C 44.683594 112.699219 44.660156 112.660156 44.65625 112.617188 C 44.636719 112.339844 44.503906 112.085938 44.472656 111.8125 C 44.441406 111.542969 44.46875 111.289062 44.707031 111.097656 C 44.792969 111.027344 44.863281 110.921875 44.894531 110.800781 C 44.957031 110.570312 44.789062 110.390625 44.554688 110.429688 C 44.105469 110.5 43.664062 110.503906 43.230469 110.3125 C 42.808594 110.121094 42.808594 110.144531 42.546875 110.535156 C 42.25 110.980469 41.976562 111.4375 41.820312 111.953125 C 41.703125 112.351562 41.570312 112.738281 41.382812 113.109375 C 41.34375 113.183594 41.320312 113.269531 41.300781 113.355469 C 41.1875 113.808594 40.925781 114.148438 40.503906 114.351562 C 40.203125 114.5 39.898438 114.644531 39.605469 114.8125 C 39.515625 114.867188 39.457031 114.925781 39.441406 115.035156 C 39.375 115.46875 39.027344 115.742188 38.597656 115.691406 C 38.4375 115.671875 38.3125 115.707031 38.179688 115.792969 C 37.71875 116.101562 37.21875 116.335938 36.683594 116.492188 C 36.015625 116.6875 35.472656 116.359375 35.320312 115.671875 C 35.199219 115.101562 35.238281 114.535156 35.347656 113.96875 C 35.367188 113.871094 35.351562 113.796875 35.300781 113.710938 C 35.082031 113.335938 35.167969 112.917969 35.523438 112.671875 C 35.648438 112.589844 35.703125 112.488281 35.707031 112.339844 C 35.722656 111.96875 35.796875 111.601562 35.886719 111.238281 C 35.953125 110.964844 36.132812 110.753906 36.339844 110.566406 C 36.503906 110.414062 36.675781 110.269531 36.84375 110.117188 C 36.90625 110.058594 36.964844 109.996094 36.992188 109.910156 C 37.207031 109.304688 37.601562 108.851562 38.144531 108.527344 C 38.53125 108.296875 38.914062 108.054688 39.273438 107.785156 C 39.414062 107.675781 39.511719 107.554688 39.496094 107.367188 C 39.496094 107.335938 39.5 107.300781 39.503906 107.269531 C 39.554688 106.855469 39.40625 106.53125 39.058594 106.300781 C 38.714844 106.074219 38.417969 105.796875 38.175781 105.464844 C 38.125 105.394531 38.070312 105.367188 37.984375 105.371094 C 37.4375 105.40625 36.886719 105.429688 36.339844 105.511719 C 36.214844 105.53125 36.148438 105.585938 36.128906 105.710938 C 36.085938 105.96875 36.050781 106.222656 36.035156 106.484375 C 36.035156 106.507812 36.035156 106.535156 36.03125 106.5625 C 36.023438 106.628906 36.027344 106.703125 35.945312 106.722656 C 35.871094 106.738281 35.835938 106.679688 35.800781 106.625 C 35.726562 106.503906 35.652344 106.386719 35.574219 106.269531 C 35.546875 106.222656 35.511719 106.164062 35.457031 106.167969 C 35.394531 106.171875 35.402344 106.25 35.390625 106.296875 C 35.371094 106.355469 35.363281 106.414062 35.351562 106.472656 C 35.277344 106.773438 35.035156 106.914062 34.742188 106.828125 C 34.601562 106.789062 34.542969 106.691406 34.597656 106.558594 C 34.683594 106.351562 34.761719 106.136719 34.925781 105.96875 C 34.996094 105.894531 35.011719 105.839844 34.902344 105.792969 C 34.871094 105.777344 34.847656 105.757812 34.820312 105.742188 C 34.546875 105.582031 34.398438 105.359375 34.441406 105.035156 C 34.46875 104.839844 34.414062 104.710938 34.226562 104.625 C 34.113281 104.574219 34.019531 104.472656 33.921875 104.390625 C 33.738281 104.230469 33.632812 103.820312 33.710938 103.589844 C 33.742188 103.496094 33.8125 103.46875 33.898438 103.476562 C 34.078125 103.484375 34.226562 103.566406 34.363281 103.675781 C 34.523438 103.800781 34.679688 103.933594 34.839844 104.058594 C 34.886719 104.097656 34.941406 104.144531 34.996094 104.09375 C 35.039062 104.050781 34.984375 104.003906 34.964844 103.964844 C 34.890625 103.796875 34.839844 103.621094 34.808594 103.4375 C 34.773438 103.230469 34.828125 103.058594 35.007812 102.929688 C 35.105469 102.859375 35.191406 102.765625 35.28125 102.679688 C 35.363281 102.601562 35.421875 102.621094 35.464844 102.722656 C 35.511719 102.839844 35.519531 102.960938 35.515625 103.085938 C 35.507812 103.34375 35.5 103.601562 35.535156 103.859375 C 35.546875 103.941406 35.570312 104.019531 35.605469 104.09375 C 35.722656 104.355469 35.933594 104.417969 36.164062 104.246094 C 36.566406 103.949219 36.960938 103.644531 37.378906 103.375 C 37.792969 103.105469 38.238281 102.929688 38.742188 103 C 39.207031 103.066406 39.5625 103.324219 39.824219 103.710938 C 39.988281 103.953125 40.132812 104.203125 40.324219 104.425781 C 40.683594 104.832031 41.117188 104.929688 41.59375 104.664062 C 42.046875 104.410156 42.488281 104.132812 42.953125 103.898438 C 43.285156 103.734375 43.617188 103.574219 43.894531 103.324219 C 44.015625 103.214844 44.136719 103.109375 44.246094 102.992188 C 44.765625 102.402344 45.417969 101.988281 46.074219 101.585938 C 46.640625 101.238281 47.246094 100.957031 47.859375 100.710938 C 48.25 100.554688 48.65625 100.421875 49.058594 100.308594 C 49.75 100.113281 50.449219 99.988281 51.167969 99.945312 C 51.730469 99.914062 52.292969 99.933594 52.847656 99.988281 C 53.324219 100.039062 53.785156 100.167969 54.253906 100.269531 C 54.761719 100.378906 55.257812 100.546875 55.789062 100.558594 C 56.003906 100.5625 56.21875 100.617188 56.4375 100.589844 C 56.550781 100.574219 56.621094 100.515625 56.679688 100.429688 C 57.105469 99.800781 57.582031 99.207031 58.109375 98.667969 C 58.65625 98.105469 59.277344 97.636719 60.019531 97.378906 C 60.289062 97.285156 60.59375 97.289062 60.871094 97.382812 C 61.007812 97.429688 61.160156 97.402344 61.285156 97.488281 C 61.277344 97.484375 61.269531 97.480469 61.261719 97.476562 C 61.269531 97.480469 61.277344 97.484375 61.285156 97.488281 C 61.558594 97.496094 61.8125 97.597656 62.078125 97.660156 C 62.34375 97.722656 62.621094 97.734375 62.941406 97.691406 C 62.761719 97.566406 62.621094 97.472656 62.484375 97.371094 C 62.417969 97.320312 62.355469 97.257812 62.296875 97.199219 C 62.132812 97.027344 62.136719 96.839844 62.304688 96.617188 C 62.414062 96.472656 62.617188 96.433594 62.800781 96.515625 C 63.136719 96.667969 63.425781 96.886719 63.703125 97.125 C 63.730469 97.148438 63.753906 97.195312 63.792969 97.171875 C 63.835938 97.148438 63.808594 97.105469 63.808594 97.070312 C 63.828125 96.734375 63.671875 96.441406 63.585938 96.132812 C 63.523438 95.910156 63.546875 95.683594 63.570312 95.460938 C 63.578125 95.394531 63.617188 95.351562 63.679688 95.335938 C 63.804688 95.300781 63.910156 95.226562 63.996094 95.128906 C 64.058594 95.058594 64.140625 95.023438 64.230469 95.050781 C 64.3125 95.082031 64.335938 95.15625 64.355469 95.242188 C 64.445312 95.628906 64.460938 96.035156 64.609375 96.40625 C 64.691406 96.613281 64.785156 96.820312 64.929688 96.996094 C 65.09375 97.199219 65.253906 97.203125 65.429688 97.007812 C 65.675781 96.730469 65.90625 96.4375 66.167969 96.179688 C 66.433594 95.925781 66.691406 95.632812 67.117188 95.652344 C 67.199219 95.65625 67.28125 95.613281 67.34375 95.542969 C 67.386719 95.492188 67.449219 95.488281 67.503906 95.527344 C 67.546875 95.5625 67.582031 95.617188 67.550781 95.671875 C 67.402344 95.949219 67.367188 96.265625 67.273438 96.5625 C 67.191406 96.832031 67 97.011719 66.78125 97.15625 C 66.652344 97.238281 66.539062 97.332031 66.429688 97.429688 C 66.25 97.589844 66.054688 97.730469 65.902344 97.925781 C 65.804688 98.050781 65.742188 98.191406 65.710938 98.34375 C 65.6875 98.449219 65.730469 98.554688 65.839844 98.617188 C 65.976562 98.691406 66.121094 98.703125 66.25 98.609375 C 66.4375 98.46875 66.636719 98.363281 66.871094 98.417969 C 67.035156 98.457031 67.21875 98.4375 67.367188 98.5625 C 67.449219 98.632812 67.554688 98.550781 67.636719 98.515625 C 67.722656 98.480469 67.808594 98.460938 67.890625 98.425781 C 67.96875 98.390625 68.050781 98.402344 68.113281 98.472656 C 68.175781 98.542969 68.160156 98.609375 68.113281 98.691406 C 67.90625 99.027344 67.628906 99.230469 67.226562 99.265625 C 66.859375 99.296875 66.5 99.382812 66.132812 99.417969 C 65.519531 99.472656 64.976562 99.757812 64.386719 99.890625 C 63.789062 100.023438 63.203125 100.015625 62.609375 99.867188 C 62.148438 99.75 61.683594 99.652344 61.207031 99.621094 C 61.0625 99.613281 60.972656 99.679688 60.914062 99.804688 C 60.816406 100.019531 60.726562 100.238281 60.632812 100.453125 C 60.519531 100.71875 60.414062 100.992188 60.253906 101.234375 C 60.136719 101.417969 60.070312 101.636719 59.902344 101.789062 C 59.84375 101.835938 59.84375 101.902344 59.933594 101.9375 C 60.386719 102.097656 60.835938 102.238281 61.320312 102.308594 C 61.738281 102.367188 62.132812 102.265625 62.539062 102.25 C 62.738281 102.242188 62.941406 102.265625 63.140625 102.304688 C 63.734375 102.414062 64.339844 102.460938 64.941406 102.472656 C 65.371094 102.484375 65.8125 102.472656 66.242188 102.375 C 66.292969 102.363281 66.347656 102.363281 66.402344 102.363281 C 66.851562 102.371094 67.277344 102.242188 67.710938 102.164062 C 68.066406 102.097656 68.417969 102.011719 68.769531 101.925781 C 69.054688 101.855469 69.339844 101.769531 69.621094 101.671875 C 69.855469 101.59375 70.09375 101.503906 70.335938 101.449219 C 70.5625 101.394531 70.773438 101.285156 71.003906 101.238281 C 71.265625 101.191406 71.503906 101.074219 71.753906 100.988281 C 72.132812 100.859375 72.511719 100.742188 72.886719 100.609375 C 73.410156 100.421875 73.933594 100.25 74.464844 100.085938 C 75.039062 99.910156 75.613281 99.730469 76.195312 99.566406 C 76.714844 99.421875 77.234375 99.28125 77.757812 99.152344 C 78.121094 99.0625 78.492188 98.996094 78.855469 98.921875 C 79.886719 98.714844 80.921875 98.570312 81.972656 98.523438 C 83.101562 98.46875 84.21875 98.542969 85.316406 98.816406 C 86.015625 98.992188 86.660156 99.304688 87.296875 99.640625 C 87.96875 99.992188 88.601562 100.40625 89.199219 100.871094 C 89.984375 101.488281 90.6875 102.191406 91.242188 103.023438 C 91.664062 103.652344 91.96875 104.34375 92.234375 105.050781 C 92.5 105.746094 92.800781 106.425781 93.195312 107.058594 C 93.304688 107.238281 93.359375 107.445312 93.332031 107.660156 C 93.308594 107.839844 93.234375 107.867188 93.097656 107.757812 C 92.738281 107.46875 92.394531 107.15625 92.117188 106.785156 C 91.398438 105.816406 90.660156 104.867188 89.945312 103.898438 C 89.136719 102.808594 88.109375 101.976562 86.890625 101.386719 C 85.878906 100.902344 84.804688 100.664062 83.695312 100.535156 C 83.148438 100.472656 82.597656 100.441406 82.046875 100.453125 C 81.289062 100.472656 80.539062 100.582031 79.796875 100.765625 C 78.960938 100.972656 78.148438 101.253906 77.347656 101.570312 C 76.574219 101.871094 75.820312 102.214844 75.074219 102.578125 C 74.402344 102.910156 73.730469 103.238281 73.050781 103.554688 C 72.539062 103.789062 72.027344 104.023438 71.503906 104.214844 C 70.628906 104.535156 69.777344 104.902344 68.882812 105.167969 C 68.429688 105.304688 67.976562 105.457031 67.515625 105.574219 C 67.101562 105.679688 66.679688 105.789062 66.257812 105.875 C 65.917969 105.941406 65.578125 106.007812 65.238281 106.070312 C 64.730469 106.160156 64.222656 106.214844 63.710938 106.277344 C 62.960938 106.367188 62.210938 106.390625 61.457031 106.375 C 60.742188 106.355469 60.039062 106.273438 59.332031 106.210938 C 58.863281 106.167969 58.394531 106.132812 57.925781 106.089844 C 57.707031 106.070312 57.65625 106.164062 57.574219 106.3125 C 57.457031 106.519531 57.246094 106.632812 57.066406 106.777344 C 56.765625 107.015625 56.476562 107.269531 56.191406 107.53125 C 56.09375 107.621094 56.117188 107.683594 56.230469 107.734375 C 56.613281 107.898438 56.984375 108.085938 57.335938 108.3125 C 57.453125 108.382812 57.558594 108.476562 57.660156 108.566406 C 57.773438 108.671875 57.921875 108.742188 57.976562 108.914062 C 57.996094 108.972656 58.085938 108.96875 58.148438 108.949219 Z M 58.148438 108.949219 " fill-opacity="1" fill-rule="nonzero"/></g><path fill="#000000" d="M 61.261719 97.476562 C 61.269531 97.480469 61.277344 97.484375 61.285156 97.488281 C 61.277344 97.484375 61.269531 97.480469 61.261719 97.476562 Z M 61.261719 97.476562 " fill-opacity="1" fill-rule="nonzero"/><g fill="#000000" fill-opacity="1"><g transform="translate(29.20517, 76.842343)"><g><path d="M 85.53125 16.203125 C 79.09375 19.453125 72.570312 19.984375 65.96875 17.796875 C 58.9375 15.554688 52.882812 10.773438 47.8125 3.453125 C 45.09375 -0.441406 42.757812 -4.957031 40.8125 -10.09375 L 37.984375 -17.625 L 17.09375 -17.625 L 12.40625 -6.46875 C 12.101562 -5.695312 11.953125 -5.070312 11.953125 -4.59375 C 11.953125 -4.125 12.054688 -3.609375 12.265625 -3.046875 C 12.472656 -2.492188 12.914062 -1.992188 13.59375 -1.546875 C 14.269531 -1.109375 15.023438 -0.890625 15.859375 -0.890625 L 16.5625 -0.890625 L 16.5625 0 L -2.390625 0 L -2.390625 -0.890625 L -1.59375 -0.890625 C -0.226562 -0.890625 1.113281 -1.285156 2.4375 -2.078125 C 3.769531 -2.878906 4.878906 -4.078125 5.765625 -5.671875 L 25.5 -50.734375 C 23.195312 -55.921875 20.75 -59.488281 18.15625 -61.4375 C 15.96875 -63.09375 13.882812 -63.921875 11.90625 -63.921875 C 9.9375 -63.921875 8.09375 -63.625 6.375 -63.03125 L 6.203125 -63.921875 C 10.453125 -66.097656 14.523438 -67.1875 18.421875 -67.1875 C 23.253906 -67.1875 27.59375 -65.300781 31.4375 -61.53125 C 35.207031 -57.8125 38.539062 -52.441406 41.4375 -45.421875 L 54.28125 -13.71875 C 59.113281 -1.738281 64.066406 6.492188 69.140625 10.984375 C 71.210938 12.804688 73.335938 14.070312 75.515625 14.78125 C 77.703125 15.488281 79.546875 15.84375 81.046875 15.84375 C 82.554688 15.84375 84.019531 15.664062 85.4375 15.3125 Z M 18.59375 -21.421875 L 36.65625 -21.421875 L 30.453125 -37.796875 C 30.160156 -38.628906 29.75 -39.765625 29.21875 -41.203125 C 28.6875 -42.648438 28.332031 -43.671875 28.15625 -44.265625 Z M 18.59375 -21.421875 "/></g></g></g><path stroke-linecap="butt" transform="matrix(0.74707, 0, 0, 0.74707, 17.966767, 120.756797)" fill="none" stroke-linejoin="miter" d="M -0.00257409 1.998745 L 128.949065 1.998745 " stroke="#000000" stroke-width="4" stroke-opacity="1" stroke-miterlimit="4"/></svg>