<svg xmlns="http://www.w3.org/2000/svg" xmlns:xlink="http://www.w3.org/1999/xlink" width="140" zoomAndPan="magnify" viewBox="0 0 104.88 30.000001" height="40" preserveAspectRatio="xMidYMid meet" version="1.0"><defs><g/><clipPath id="21335bb474"><path d="M 5.40625 4.632812 L 12.664062 4.632812 L 12.664062 24.226562 L 5.40625 24.226562 Z M 5.40625 4.632812 " clip-rule="nonzero"/></clipPath></defs><g clip-path="url(#21335bb474)"><path fill="#ffffff" d="M 7.945312 12.75 C 7.96875 12.832031 7.996094 12.914062 8.054688 12.980469 C 8.128906 13.0625 8.097656 13.148438 8.066406 13.230469 C 8.039062 13.296875 8.019531 13.359375 8 13.425781 C 7.992188 13.460938 7.980469 13.496094 7.9375 13.496094 C 7.898438 13.496094 7.867188 13.480469 7.847656 13.433594 C 7.785156 13.292969 7.757812 13.144531 7.765625 12.988281 C 7.773438 12.90625 7.746094 12.824219 7.6875 12.761719 C 7.613281 12.671875 7.503906 12.660156 7.398438 12.703125 C 7.335938 12.730469 7.296875 12.773438 7.257812 12.820312 C 7.167969 12.925781 7.058594 13.003906 6.917969 13.039062 C 6.855469 13.054688 6.792969 13.050781 6.730469 13.054688 C 6.671875 13.0625 6.652344 13.015625 6.679688 12.964844 C 6.703125 12.921875 6.742188 12.902344 6.777344 12.882812 C 6.804688 12.867188 6.824219 12.84375 6.835938 12.8125 C 6.863281 12.714844 6.917969 12.644531 7.023438 12.613281 C 7.136719 12.574219 7.226562 12.496094 7.308594 12.40625 C 7.324219 12.386719 7.351562 12.363281 7.335938 12.332031 C 7.320312 12.300781 7.292969 12.273438 7.253906 12.273438 C 7.179688 12.269531 7.113281 12.234375 7.039062 12.226562 C 7.015625 12.222656 6.996094 12.203125 6.976562 12.1875 C 6.894531 12.105469 6.847656 12 6.789062 11.90625 C 6.746094 11.832031 6.773438 11.808594 6.839844 11.816406 C 6.867188 11.820312 6.886719 11.808594 6.910156 11.796875 C 7.015625 11.738281 7.113281 11.746094 7.195312 11.835938 C 7.253906 11.898438 7.320312 11.949219 7.390625 12 C 7.402344 12.007812 7.414062 12.015625 7.429688 12.011719 C 7.449219 12.003906 7.449219 11.984375 7.445312 11.96875 C 7.4375 11.925781 7.429688 11.878906 7.40625 11.835938 C 7.355469 11.742188 7.320312 11.640625 7.3125 11.535156 C 7.308594 11.511719 7.316406 11.484375 7.324219 11.460938 C 7.359375 11.390625 7.394531 11.382812 7.457031 11.433594 C 7.46875 11.445312 7.480469 11.457031 7.492188 11.464844 C 7.574219 11.515625 7.609375 11.585938 7.585938 11.679688 C 7.578125 11.703125 7.582031 11.730469 7.585938 11.753906 C 7.589844 11.773438 7.585938 11.800781 7.609375 11.804688 C 7.632812 11.808594 7.648438 11.789062 7.660156 11.769531 C 7.691406 11.722656 7.710938 11.671875 7.730469 11.621094 C 7.769531 11.5 7.808594 11.382812 7.851562 11.265625 C 7.875 11.191406 7.921875 11.128906 7.972656 11.074219 C 8.085938 10.964844 8.195312 10.941406 8.335938 11.007812 C 8.535156 11.105469 8.738281 11.195312 8.925781 11.316406 C 8.933594 11.324219 8.941406 11.332031 8.953125 11.335938 C 8.96875 11.347656 8.980469 11.375 9.003906 11.367188 C 9.03125 11.355469 9.015625 11.324219 9.019531 11.300781 C 9.035156 11.179688 9.015625 11.0625 8.976562 10.945312 C 8.953125 10.882812 8.910156 10.828125 8.886719 10.761719 C 8.828125 10.625 8.800781 10.484375 8.769531 10.339844 C 8.730469 10.179688 8.714844 10.011719 8.699219 9.847656 C 8.683594 9.695312 8.632812 9.550781 8.578125 9.410156 C 8.511719 9.234375 8.4375 9.058594 8.351562 8.886719 C 8.277344 8.75 8.222656 8.601562 8.125 8.472656 C 8.117188 8.460938 8.109375 8.4375 8.089844 8.441406 C 8.066406 8.445312 8.066406 8.46875 8.0625 8.484375 C 8.027344 8.609375 7.996094 8.734375 7.964844 8.859375 C 7.960938 8.867188 7.957031 8.875 7.953125 8.882812 C 7.898438 9.023438 7.828125 9.058594 7.671875 8.960938 C 7.570312 8.894531 7.464844 8.875 7.351562 8.898438 C 7.300781 8.910156 7.265625 8.9375 7.238281 8.984375 C 7.199219 9.050781 7.148438 9.109375 7.070312 9.136719 C 7.027344 9.152344 6.996094 9.152344 6.976562 9.101562 C 6.972656 9.089844 6.964844 9.074219 6.949219 9.070312 C 6.890625 9.058594 6.914062 9.03125 6.941406 9.007812 C 7.007812 8.953125 7.074219 8.890625 7.136719 8.824219 C 7.179688 8.78125 7.226562 8.738281 7.269531 8.695312 C 7.3125 8.644531 7.304688 8.585938 7.25 8.550781 C 7.214844 8.527344 7.175781 8.523438 7.132812 8.527344 C 7.039062 8.53125 6.957031 8.507812 6.886719 8.441406 C 6.84375 8.402344 6.792969 8.371094 6.738281 8.34375 C 6.726562 8.339844 6.710938 8.335938 6.710938 8.316406 C 6.714844 8.300781 6.726562 8.292969 6.742188 8.289062 C 6.832031 8.285156 6.914062 8.242188 7.003906 8.230469 C 7.09375 8.21875 7.175781 8.230469 7.238281 8.308594 C 7.261719 8.335938 7.296875 8.359375 7.335938 8.371094 C 7.414062 8.390625 7.472656 8.332031 7.460938 8.257812 C 7.4375 8.109375 7.433594 7.960938 7.496094 7.820312 C 7.558594 7.679688 7.550781 7.679688 7.425781 7.59375 C 7.277344 7.496094 7.128906 7.40625 6.960938 7.355469 C 6.828125 7.316406 6.703125 7.269531 6.582031 7.210938 C 6.554688 7.195312 6.527344 7.1875 6.5 7.183594 C 6.351562 7.144531 6.242188 7.058594 6.171875 6.917969 C 6.125 6.820312 6.078125 6.71875 6.023438 6.621094 C 6.003906 6.59375 5.984375 6.574219 5.949219 6.566406 C 5.808594 6.546875 5.71875 6.429688 5.734375 6.289062 C 5.742188 6.238281 5.730469 6.195312 5.699219 6.152344 C 5.597656 6 5.523438 5.832031 5.472656 5.65625 C 5.40625 5.4375 5.515625 5.257812 5.742188 5.207031 C 5.925781 5.164062 6.113281 5.179688 6.296875 5.214844 C 6.332031 5.222656 6.355469 5.214844 6.382812 5.199219 C 6.507812 5.128906 6.644531 5.15625 6.722656 5.273438 C 6.75 5.316406 6.785156 5.332031 6.832031 5.335938 C 6.953125 5.339844 7.074219 5.363281 7.191406 5.394531 C 7.285156 5.414062 7.351562 5.472656 7.414062 5.542969 C 7.464844 5.597656 7.511719 5.652344 7.5625 5.710938 C 7.582031 5.730469 7.601562 5.75 7.628906 5.757812 C 7.828125 5.828125 7.976562 5.960938 8.082031 6.140625 C 8.15625 6.265625 8.238281 6.394531 8.324219 6.511719 C 8.359375 6.558594 8.402344 6.589844 8.460938 6.585938 C 8.472656 6.585938 8.484375 6.585938 8.496094 6.589844 C 8.628906 6.605469 8.734375 6.554688 8.8125 6.441406 C 8.886719 6.328125 8.976562 6.230469 9.085938 6.148438 C 9.109375 6.132812 9.117188 6.113281 9.117188 6.085938 C 9.105469 5.90625 9.097656 5.722656 9.070312 5.542969 C 9.0625 5.503906 9.046875 5.480469 9.003906 5.472656 C 8.921875 5.457031 8.835938 5.449219 8.753906 5.441406 C 8.742188 5.441406 8.734375 5.441406 8.726562 5.441406 C 8.703125 5.4375 8.679688 5.4375 8.675781 5.414062 C 8.667969 5.386719 8.6875 5.375 8.707031 5.363281 C 8.746094 5.339844 8.785156 5.316406 8.824219 5.289062 C 8.835938 5.28125 8.855469 5.269531 8.855469 5.253906 C 8.851562 5.230469 8.828125 5.234375 8.8125 5.230469 C 8.792969 5.222656 8.773438 5.222656 8.753906 5.214844 C 8.65625 5.191406 8.609375 5.113281 8.636719 5.015625 C 8.652344 4.96875 8.683594 4.949219 8.726562 4.96875 C 8.796875 4.996094 8.867188 5.023438 8.921875 5.074219 C 8.945312 5.097656 8.964844 5.105469 8.976562 5.066406 C 8.984375 5.058594 8.988281 5.050781 8.996094 5.039062 C 9.046875 4.953125 9.121094 4.902344 9.226562 4.917969 C 9.289062 4.925781 9.332031 4.90625 9.359375 4.84375 C 9.378906 4.808594 9.410156 4.777344 9.4375 4.746094 C 9.488281 4.683594 9.625 4.648438 9.699219 4.675781 C 9.730469 4.683594 9.738281 4.707031 9.738281 4.738281 C 9.734375 4.796875 9.707031 4.84375 9.671875 4.890625 C 9.628906 4.941406 9.585938 4.996094 9.546875 5.046875 C 9.535156 5.0625 9.519531 5.082031 9.535156 5.097656 C 9.546875 5.113281 9.5625 5.09375 9.578125 5.089844 C 9.632812 5.066406 9.691406 5.046875 9.75 5.039062 C 9.816406 5.027344 9.875 5.042969 9.917969 5.101562 C 9.941406 5.136719 9.96875 5.164062 10 5.195312 C 10.023438 5.21875 10.019531 5.238281 9.984375 5.253906 C 9.945312 5.269531 9.90625 5.273438 9.867188 5.269531 C 9.78125 5.269531 9.695312 5.265625 9.609375 5.277344 C 9.585938 5.28125 9.558594 5.289062 9.535156 5.300781 C 9.449219 5.339844 9.429688 5.410156 9.484375 5.484375 C 9.582031 5.617188 9.679688 5.75 9.769531 5.886719 C 9.859375 6.023438 9.917969 6.171875 9.894531 6.335938 C 9.871094 6.492188 9.785156 6.609375 9.660156 6.695312 C 9.582031 6.75 9.5 6.796875 9.425781 6.859375 C 9.292969 6.976562 9.261719 7.121094 9.347656 7.277344 C 9.429688 7.429688 9.523438 7.574219 9.597656 7.726562 C 9.652344 7.835938 9.703125 7.945312 9.789062 8.039062 C 9.824219 8.078125 9.855469 8.121094 9.894531 8.15625 C 10.089844 8.328125 10.222656 8.542969 10.355469 8.757812 C 10.472656 8.945312 10.5625 9.144531 10.644531 9.347656 C 10.695312 9.476562 10.738281 9.613281 10.773438 9.746094 C 10.839844 9.972656 10.878906 10.203125 10.894531 10.441406 C 10.90625 10.628906 10.898438 10.8125 10.878906 10.996094 C 10.863281 11.152344 10.820312 11.304688 10.789062 11.460938 C 10.753906 11.628906 10.695312 11.792969 10.691406 11.96875 C 10.691406 12.039062 10.675781 12.109375 10.683594 12.183594 C 10.6875 12.21875 10.707031 12.242188 10.734375 12.261719 C 10.941406 12.402344 11.136719 12.558594 11.3125 12.734375 C 11.496094 12.914062 11.652344 13.121094 11.734375 13.367188 C 11.765625 13.453125 11.765625 13.554688 11.734375 13.648438 C 11.71875 13.691406 11.726562 13.742188 11.699219 13.785156 C 11.699219 13.78125 11.703125 13.777344 11.703125 13.777344 C 11.703125 13.777344 11.699219 13.78125 11.699219 13.785156 C 11.695312 13.875 11.664062 13.957031 11.644531 14.046875 C 11.621094 14.132812 11.621094 14.226562 11.632812 14.332031 C 11.675781 14.269531 11.703125 14.226562 11.738281 14.179688 C 11.753906 14.15625 11.773438 14.136719 11.792969 14.117188 C 11.851562 14.0625 11.914062 14.066406 11.984375 14.121094 C 12.03125 14.15625 12.046875 14.222656 12.019531 14.285156 C 11.96875 14.394531 11.894531 14.492188 11.820312 14.582031 C 11.8125 14.589844 11.796875 14.597656 11.804688 14.613281 C 11.808594 14.625 11.824219 14.617188 11.835938 14.617188 C 11.945312 14.625 12.042969 14.574219 12.144531 14.542969 C 12.214844 14.523438 12.289062 14.53125 12.363281 14.539062 C 12.386719 14.542969 12.398438 14.554688 12.40625 14.574219 C 12.417969 14.617188 12.441406 14.652344 12.472656 14.679688 C 12.496094 14.699219 12.507812 14.726562 12.496094 14.757812 C 12.488281 14.785156 12.464844 14.792969 12.433594 14.796875 C 12.308594 14.828125 12.175781 14.832031 12.054688 14.882812 C 11.984375 14.910156 11.917969 14.941406 11.859375 14.988281 C 11.792969 15.042969 11.792969 15.09375 11.855469 15.152344 C 11.949219 15.234375 12.042969 15.308594 12.128906 15.398438 C 12.210938 15.484375 12.308594 15.570312 12.300781 15.710938 C 12.300781 15.738281 12.3125 15.765625 12.335938 15.785156 C 12.351562 15.800781 12.355469 15.820312 12.339844 15.835938 C 12.332031 15.851562 12.3125 15.863281 12.296875 15.855469 C 12.203125 15.804688 12.101562 15.792969 12.003906 15.761719 C 11.914062 15.734375 11.855469 15.671875 11.808594 15.597656 C 11.78125 15.558594 11.75 15.519531 11.71875 15.484375 C 11.667969 15.421875 11.621094 15.359375 11.554688 15.308594 C 11.515625 15.277344 11.46875 15.257812 11.417969 15.246094 C 11.386719 15.238281 11.347656 15.253906 11.332031 15.289062 C 11.304688 15.335938 11.300781 15.382812 11.332031 15.425781 C 11.378906 15.484375 11.414062 15.550781 11.394531 15.628906 C 11.382812 15.683594 11.390625 15.742188 11.347656 15.792969 C 11.324219 15.820312 11.351562 15.855469 11.363281 15.882812 C 11.375 15.910156 11.378906 15.9375 11.390625 15.964844 C 11.402344 15.992188 11.402344 16.019531 11.378906 16.039062 C 11.351562 16.058594 11.332031 16.054688 11.304688 16.039062 C 11.195312 15.972656 11.128906 15.878906 11.117188 15.746094 C 11.105469 15.625 11.078125 15.507812 11.066406 15.386719 C 11.050781 15.183594 10.957031 15.003906 10.914062 14.808594 C 10.867188 14.609375 10.871094 14.417969 10.921875 14.222656 C 10.957031 14.070312 10.992188 13.917969 11 13.757812 C 11.003906 13.710938 10.980469 13.679688 10.941406 13.660156 C 10.871094 13.628906 10.800781 13.597656 10.726562 13.570312 C 10.640625 13.53125 10.550781 13.496094 10.472656 13.445312 C 10.410156 13.402344 10.339844 13.382812 10.289062 13.328125 C 10.273438 13.308594 10.253906 13.308594 10.242188 13.335938 C 10.1875 13.488281 10.144531 13.636719 10.121094 13.796875 C 10.101562 13.933594 10.132812 14.0625 10.140625 14.199219 C 10.140625 14.265625 10.132812 14.332031 10.121094 14.398438 C 10.085938 14.59375 10.070312 14.792969 10.066406 14.992188 C 10.0625 15.132812 10.066406 15.28125 10.097656 15.421875 C 10.101562 15.4375 10.101562 15.457031 10.101562 15.472656 C 10.101562 15.621094 10.140625 15.761719 10.167969 15.90625 C 10.1875 16.023438 10.21875 16.140625 10.246094 16.257812 C 10.269531 16.351562 10.296875 16.445312 10.328125 16.539062 C 10.355469 16.617188 10.382812 16.691406 10.402344 16.773438 C 10.417969 16.847656 10.457031 16.917969 10.46875 16.996094 C 10.484375 17.082031 10.523438 17.160156 10.550781 17.242188 C 10.59375 17.367188 10.632812 17.492188 10.675781 17.617188 C 10.738281 17.789062 10.792969 17.960938 10.847656 18.136719 C 10.90625 18.328125 10.964844 18.519531 11.019531 18.710938 C 11.066406 18.882812 11.113281 19.054688 11.152344 19.226562 C 11.183594 19.347656 11.207031 19.46875 11.230469 19.589844 C 11.296875 19.929688 11.34375 20.269531 11.359375 20.617188 C 11.378906 20.992188 11.355469 21.359375 11.265625 21.722656 C 11.207031 21.953125 11.105469 22.167969 10.996094 22.378906 C 10.878906 22.597656 10.742188 22.808594 10.589844 23.003906 C 10.390625 23.265625 10.15625 23.496094 9.886719 23.679688 C 9.679688 23.820312 9.453125 23.921875 9.222656 24.007812 C 8.992188 24.097656 8.769531 24.195312 8.5625 24.324219 C 8.503906 24.363281 8.4375 24.378906 8.367188 24.371094 C 8.308594 24.363281 8.296875 24.339844 8.335938 24.292969 C 8.429688 24.175781 8.53125 24.0625 8.652344 23.96875 C 8.96875 23.730469 9.28125 23.488281 9.597656 23.25 C 9.957031 22.984375 10.230469 22.644531 10.421875 22.242188 C 10.582031 21.910156 10.660156 21.554688 10.699219 21.1875 C 10.722656 21.007812 10.730469 20.824219 10.726562 20.644531 C 10.722656 20.390625 10.6875 20.144531 10.625 19.898438 C 10.558594 19.621094 10.464844 19.355469 10.363281 19.089844 C 10.261719 18.835938 10.152344 18.585938 10.03125 18.339844 C 9.921875 18.117188 9.816406 17.894531 9.710938 17.671875 C 9.632812 17.503906 9.558594 17.332031 9.496094 17.160156 C 9.390625 16.871094 9.269531 16.589844 9.183594 16.292969 C 9.136719 16.144531 9.089844 15.996094 9.050781 15.84375 C 9.015625 15.703125 8.980469 15.566406 8.953125 15.425781 C 8.929688 15.3125 8.90625 15.203125 8.886719 15.089844 C 8.859375 14.921875 8.839844 14.753906 8.820312 14.585938 C 8.789062 14.339844 8.78125 14.089844 8.789062 13.839844 C 8.792969 13.605469 8.820312 13.371094 8.839844 13.136719 C 8.855469 12.984375 8.867188 12.828125 8.878906 12.675781 C 8.886719 12.601562 8.855469 12.585938 8.808594 12.558594 C 8.738281 12.519531 8.703125 12.449219 8.65625 12.390625 C 8.578125 12.289062 8.496094 12.195312 8.410156 12.101562 C 8.378906 12.070312 8.359375 12.078125 8.34375 12.113281 C 8.289062 12.242188 8.226562 12.363281 8.152344 12.480469 C 8.128906 12.519531 8.097656 12.550781 8.070312 12.585938 C 8.035156 12.625 8.011719 12.671875 7.957031 12.691406 C 7.9375 12.695312 7.9375 12.726562 7.945312 12.75 Z M 7.945312 12.75 " fill-opacity="1" fill-rule="nonzero"/></g><path fill="#ffffff" d="M 11.703125 13.777344 C 11.703125 13.777344 11.699219 13.78125 11.699219 13.785156 C 11.699219 13.78125 11.703125 13.777344 11.703125 13.777344 Z M 11.703125 13.777344 " fill-opacity="1" fill-rule="nonzero"/><g fill="#ffffff" fill-opacity="1"><g transform="translate(15.624781, 19.010651)"><g><path d="M 1.71875 -10.546875 C 2.332031 -10.804688 2.929688 -10.9375 3.515625 -10.9375 C 3.992188 -10.9375 4.484375 -10.757812 4.984375 -10.40625 C 5.265625 -10.21875 5.578125 -9.84375 5.921875 -9.28125 C 6.148438 -8.90625 6.441406 -8.210938 6.796875 -7.203125 L 8.546875 -2.234375 C 8.953125 -1.117188 9.363281 -0.234375 9.78125 0.421875 C 10.195312 1.078125 10.578125 1.570312 10.921875 1.90625 C 11.265625 2.238281 11.625 2.46875 12 2.59375 C 12.375 2.726562 12.679688 2.796875 12.921875 2.796875 C 13.171875 2.796875 13.390625 2.78125 13.578125 2.75 L 13.59375 2.890625 C 13.132812 3.046875 12.6875 3.125 12.25 3.125 C 11.8125 3.125 11.367188 3.007812 10.921875 2.78125 C 10.484375 2.550781 10.070312 2.238281 9.6875 1.84375 C 8.863281 1.007812 8.164062 -0.257812 7.59375 -1.96875 L 7.03125 -3.609375 L 3.09375 -3.609375 L 2.09375 -1.046875 C 2.050781 -0.929688 2.03125 -0.816406 2.03125 -0.703125 C 2.03125 -0.585938 2.078125 -0.460938 2.171875 -0.328125 C 2.273438 -0.203125 2.429688 -0.140625 2.640625 -0.140625 L 2.765625 -0.140625 L 2.765625 0 L -0.125 0 L -0.125 -0.140625 L 0 -0.140625 C 0.226562 -0.140625 0.453125 -0.207031 0.671875 -0.34375 C 0.890625 -0.488281 1.070312 -0.703125 1.21875 -0.984375 L 4.78125 -9.515625 C 4.269531 -10.253906 3.628906 -10.625 2.859375 -10.625 C 2.515625 -10.625 2.144531 -10.550781 1.75 -10.40625 Z M 3.25 -4.046875 L 6.890625 -4.046875 L 5.75 -7.390625 C 5.53125 -8.035156 5.328125 -8.535156 5.140625 -8.890625 Z M 3.25 -4.046875 "/></g></g></g><g fill="#ffffff" fill-opacity="1"><g transform="translate(25.85504, 19.010651)"><g><path d="M 15.8125 2.328125 C 15.875 2.328125 15.929688 2.328125 15.984375 2.328125 L 15.984375 2.46875 C 15.710938 2.507812 15.410156 2.53125 15.078125 2.53125 C 14.753906 2.53125 14.347656 2.457031 13.859375 2.3125 C 13.378906 2.164062 12.941406 1.898438 12.546875 1.515625 C 11.742188 0.703125 11.253906 -0.34375 11.078125 -1.625 L 10.203125 -8.015625 L 7.21875 -1.265625 C 6.945312 -0.679688 6.785156 -0.191406 6.734375 0.203125 L 6.578125 0.203125 L 2.859375 -7.890625 L 2.234375 -0.75 C 2.210938 -0.582031 2.257812 -0.4375 2.375 -0.3125 C 2.5 -0.1875 2.632812 -0.125 2.78125 -0.125 L 3 -0.125 L 3 0 L 0.21875 0 L 0.21875 -0.140625 L 0.453125 -0.140625 C 0.703125 -0.140625 0.925781 -0.21875 1.125 -0.375 C 1.320312 -0.539062 1.445312 -0.75 1.5 -1 L 2.40625 -8.859375 C 1.5625 -10.515625 0.550781 -11.34375 -0.625 -11.34375 C -0.738281 -11.34375 -0.851562 -11.335938 -0.96875 -11.328125 L -0.96875 -11.46875 C -0.707031 -11.539062 -0.492188 -11.578125 -0.328125 -11.578125 C -0.171875 -11.578125 0 -11.566406 0.1875 -11.546875 C 0.382812 -11.535156 0.613281 -11.488281 0.875 -11.40625 C 1.132812 -11.332031 1.378906 -11.222656 1.609375 -11.078125 C 1.835938 -10.929688 2.035156 -10.773438 2.203125 -10.609375 C 2.378906 -10.453125 2.546875 -10.28125 2.703125 -10.09375 C 2.960938 -9.75 3.171875 -9.414062 3.328125 -9.09375 L 6.78125 -1.59375 L 10.65625 -10.265625 L 10.78125 -10.265625 L 12.125 -1.75 C 12.320312 -0.40625 12.753906 0.609375 13.421875 1.296875 C 14.085938 1.984375 14.882812 2.328125 15.8125 2.328125 Z M 15.8125 2.328125 "/></g></g></g><g fill="#ffffff" fill-opacity="1"><g transform="translate(39.23197, 19.010651)"><g><path d="M 5.0625 -10.296875 C 5.894531 -10.296875 6.585938 -10.09375 7.140625 -9.6875 C 7.890625 -9.15625 8.265625 -8.316406 8.265625 -7.171875 C 8.265625 -6.347656 8.035156 -5.644531 7.578125 -5.0625 C 7.078125 -4.4375 6.378906 -4.125 5.484375 -4.125 C 5.015625 -4.125 4.585938 -4.234375 4.203125 -4.453125 C 3.828125 -4.679688 3.601562 -5.070312 3.53125 -5.625 L 3.671875 -5.65625 C 3.773438 -5.25 4.019531 -4.960938 4.40625 -4.796875 C 4.65625 -4.679688 4.882812 -4.625 5.09375 -4.625 C 5.875 -4.625 6.441406 -4.929688 6.796875 -5.546875 C 7.054688 -5.992188 7.1875 -6.53125 7.1875 -7.15625 C 7.1875 -8.15625 6.910156 -8.875 6.359375 -9.3125 C 5.929688 -9.65625 5.394531 -9.828125 4.75 -9.828125 C 4.59375 -9.828125 4.457031 -9.820312 4.34375 -9.8125 C 4.238281 -9.800781 3.757812 -9.722656 2.90625 -9.578125 L 2.90625 -1.046875 C 2.914062 -0.785156 3.007812 -0.566406 3.1875 -0.390625 C 3.375 -0.222656 3.585938 -0.140625 3.828125 -0.140625 L 4.015625 -0.140625 L 4.015625 0 L 0.859375 0 L 0.859375 -0.140625 L 1.046875 -0.140625 C 1.285156 -0.140625 1.492188 -0.222656 1.671875 -0.390625 C 1.859375 -0.566406 1.957031 -0.785156 1.96875 -1.046875 L 1.96875 -8.828125 C 1.96875 -9.078125 1.894531 -9.269531 1.75 -9.40625 C 1.601562 -9.539062 1.414062 -9.609375 1.1875 -9.609375 C 1.144531 -9.609375 1.097656 -9.609375 1.046875 -9.609375 L 0.875 -9.59375 L 0.84375 -9.734375 C 1.34375 -9.773438 2.007812 -9.863281 2.84375 -10 C 3.6875 -10.144531 4.207031 -10.226562 4.40625 -10.25 C 4.613281 -10.28125 4.832031 -10.296875 5.0625 -10.296875 Z M 5.0625 -10.296875 "/></g></g></g><g fill="#ffffff" fill-opacity="1"><g transform="translate(48.140346, 19.010651)"><g><path d="M 3.59375 0.265625 C 5.632812 0.984375 7.164062 1.46875 8.1875 1.71875 C 9.207031 1.96875 10.082031 2.09375 10.8125 2.09375 C 11.550781 2.09375 12.359375 1.925781 13.234375 1.59375 L 13.3125 1.703125 C 12.144531 2.515625 10.96875 2.921875 9.78125 2.921875 C 8.5625 2.921875 7.175781 2.539062 5.625 1.78125 C 4.425781 1.1875 3.679688 0.828125 3.390625 0.703125 C 2.367188 0.242188 1.523438 0.0078125 0.859375 0 L 0.859375 -0.140625 L 1.046875 -0.140625 C 1.296875 -0.140625 1.507812 -0.222656 1.6875 -0.390625 C 1.863281 -0.566406 1.957031 -0.785156 1.96875 -1.046875 L 1.96875 -9.015625 C 1.957031 -9.265625 1.863281 -9.476562 1.6875 -9.65625 C 1.507812 -9.832031 1.296875 -9.921875 1.046875 -9.921875 L 0.859375 -9.921875 L 0.859375 -10.0625 L 4.015625 -10.0625 L 4.015625 -9.921875 L 3.828125 -9.921875 C 3.578125 -9.921875 3.359375 -9.832031 3.171875 -9.65625 C 2.992188 -9.476562 2.90625 -9.265625 2.90625 -9.015625 L 2.90625 -0.71875 C 2.90625 -0.539062 2.914062 -0.40625 2.9375 -0.3125 C 2.957031 -0.226562 3.019531 -0.128906 3.125 -0.015625 C 3.226562 0.0976562 3.382812 0.191406 3.59375 0.265625 Z M 3.59375 0.265625 "/></g></g></g><g fill="#ffffff" fill-opacity="1"><g transform="translate(53.902049, 19.010651)"><g><path d="M 4.625 -0.140625 L 4.8125 -0.140625 L 4.8125 0 L 1.671875 0 L 1.671875 -0.140625 L 1.859375 -0.140625 C 2.109375 -0.140625 2.320312 -0.226562 2.5 -0.40625 C 2.6875 -0.582031 2.78125 -0.796875 2.78125 -1.046875 L 2.78125 -9.671875 L 1.234375 -9.59375 C 0.265625 -9.53125 -0.21875 -9.175781 -0.21875 -8.53125 C -0.21875 -8.28125 -0.132812 -8.0625 0.03125 -7.875 C 0.195312 -7.695312 0.460938 -7.597656 0.828125 -7.578125 L 0.828125 -7.484375 C 0.703125 -7.460938 0.570312 -7.453125 0.4375 -7.453125 C 0.0078125 -7.453125 -0.304688 -7.617188 -0.515625 -7.953125 C -0.640625 -8.140625 -0.703125 -8.347656 -0.703125 -8.578125 C -0.703125 -9.390625 -0.0820312 -9.863281 1.15625 -10 C 1.164062 -10 1.640625 -10.03125 2.578125 -10.09375 C 3.523438 -10.15625 4.269531 -10.238281 4.8125 -10.34375 L 4.84375 -10.203125 C 4.4375 -10.140625 4.144531 -10 3.96875 -9.78125 C 3.789062 -9.570312 3.703125 -9.28125 3.703125 -8.90625 L 3.703125 -1.046875 C 3.710938 -0.796875 3.804688 -0.582031 3.984375 -0.40625 C 4.160156 -0.226562 4.375 -0.140625 4.625 -0.140625 Z M 4.625 -0.140625 "/></g></g></g><g fill="#ffffff" fill-opacity="1"><g transform="translate(59.548811, 19.010651)"><g><path d="M 14.3125 1.28125 C 13.425781 2.3125 12.226562 2.828125 10.71875 2.828125 C 9.570312 2.828125 8.398438 2.628906 7.203125 2.234375 C 5.835938 1.765625 4.765625 1.359375 3.984375 1.015625 C 2.503906 0.367188 1.519531 0.03125 1.03125 0 L 0.859375 0 L 0.859375 -0.125 L 6.90625 -9.640625 L 2.0625 -9.640625 C 1.726562 -9.628906 1.484375 -9.488281 1.328125 -9.21875 C 1.242188 -9.082031 1.203125 -8.9375 1.203125 -8.78125 L 1.203125 -8.53125 L 1.0625 -8.53125 L 1.0625 -10.328125 C 1.207031 -10.273438 1.460938 -10.21875 1.828125 -10.15625 C 2.191406 -10.101562 2.441406 -10.078125 2.578125 -10.078125 C 2.710938 -10.078125 2.785156 -10.078125 2.796875 -10.078125 L 6.8125 -10.078125 C 7.21875 -10.078125 7.554688 -10.097656 7.828125 -10.140625 C 8.109375 -10.191406 8.28125 -10.234375 8.34375 -10.265625 L 8.34375 -10.140625 L 2.0625 -0.21875 C 2.144531 -0.195312 2.65625 -0.0351562 3.59375 0.265625 C 6.875 1.347656 9.300781 1.890625 10.875 1.890625 C 12.09375 1.890625 13.21875 1.648438 14.25 1.171875 Z M 14.3125 1.28125 "/></g></g></g><g fill="#ffffff" fill-opacity="1"><g transform="translate(68.687084, 19.010651)"><g><path d="M 1.71875 -10.546875 C 2.332031 -10.804688 2.929688 -10.9375 3.515625 -10.9375 C 3.992188 -10.9375 4.484375 -10.757812 4.984375 -10.40625 C 5.265625 -10.21875 5.578125 -9.84375 5.921875 -9.28125 C 6.148438 -8.90625 6.441406 -8.210938 6.796875 -7.203125 L 8.546875 -2.234375 C 8.953125 -1.117188 9.363281 -0.234375 9.78125 0.421875 C 10.195312 1.078125 10.578125 1.570312 10.921875 1.90625 C 11.265625 2.238281 11.625 2.46875 12 2.59375 C 12.375 2.726562 12.679688 2.796875 12.921875 2.796875 C 13.171875 2.796875 13.390625 2.78125 13.578125 2.75 L 13.59375 2.890625 C 13.132812 3.046875 12.6875 3.125 12.25 3.125 C 11.8125 3.125 11.367188 3.007812 10.921875 2.78125 C 10.484375 2.550781 10.070312 2.238281 9.6875 1.84375 C 8.863281 1.007812 8.164062 -0.257812 7.59375 -1.96875 L 7.03125 -3.609375 L 3.09375 -3.609375 L 2.09375 -1.046875 C 2.050781 -0.929688 2.03125 -0.816406 2.03125 -0.703125 C 2.03125 -0.585938 2.078125 -0.460938 2.171875 -0.328125 C 2.273438 -0.203125 2.429688 -0.140625 2.640625 -0.140625 L 2.765625 -0.140625 L 2.765625 0 L -0.125 0 L -0.125 -0.140625 L 0 -0.140625 C 0.226562 -0.140625 0.453125 -0.207031 0.671875 -0.34375 C 0.890625 -0.488281 1.070312 -0.703125 1.21875 -0.984375 L 4.78125 -9.515625 C 4.269531 -10.253906 3.628906 -10.625 2.859375 -10.625 C 2.515625 -10.625 2.144531 -10.550781 1.75 -10.40625 Z M 3.25 -4.046875 L 6.890625 -4.046875 L 5.75 -7.390625 C 5.53125 -8.035156 5.328125 -8.535156 5.140625 -8.890625 Z M 3.25 -4.046875 "/></g></g></g><g fill="#ffffff" fill-opacity="1"><g transform="translate(78.917343, 19.010651)"><g><path d="M 13.625 2.4375 C 13.226562 2.550781 12.875 2.609375 12.5625 2.609375 C 12.25 2.609375 11.972656 2.585938 11.734375 2.546875 C 11.492188 2.503906 11.234375 2.425781 10.953125 2.3125 C 10.679688 2.207031 10.425781 2.082031 10.1875 1.9375 C 9.945312 1.789062 9.707031 1.613281 9.46875 1.40625 C 9.03125 1.050781 8.628906 0.664062 8.265625 0.25 C 7.910156 -0.15625 7.21875 -0.925781 6.1875 -2.0625 C 5.164062 -3.195312 4.488281 -3.953125 4.15625 -4.328125 C 3.820312 -4.703125 3.5625 -4.898438 3.375 -4.921875 L 3.375 -5.0625 C 3.9375 -5.0625 4.304688 -5.070312 4.484375 -5.09375 C 4.671875 -5.113281 4.867188 -5.15625 5.078125 -5.21875 C 5.296875 -5.28125 5.476562 -5.367188 5.625 -5.484375 C 6.1875 -5.835938 6.46875 -6.4375 6.46875 -7.28125 C 6.46875 -7.988281 6.3125 -8.550781 6 -8.96875 C 5.6875 -9.394531 5.25 -9.609375 4.6875 -9.609375 L 2.90625 -9.609375 L 2.90625 -1.046875 C 2.90625 -0.804688 2.992188 -0.59375 3.171875 -0.40625 C 3.347656 -0.226562 3.566406 -0.140625 3.828125 -0.140625 L 4 -0.140625 L 4.015625 0 L 0.859375 0 L 0.859375 -0.140625 L 1.046875 -0.140625 C 1.285156 -0.140625 1.492188 -0.222656 1.671875 -0.390625 C 1.859375 -0.566406 1.957031 -0.78125 1.96875 -1.03125 L 1.96875 -9.015625 C 1.957031 -9.265625 1.863281 -9.476562 1.6875 -9.65625 C 1.507812 -9.832031 1.296875 -9.921875 1.046875 -9.921875 L 0.859375 -9.921875 L 0.859375 -10.0625 L 4.75 -10.0625 C 5.59375 -10.0625 6.269531 -9.820312 6.78125 -9.34375 C 7.289062 -8.875 7.546875 -8.25 7.546875 -7.46875 C 7.546875 -6.6875 7.3125 -6.015625 6.84375 -5.453125 C 6.375 -4.890625 5.800781 -4.609375 5.125 -4.609375 C 5.125 -4.609375 5.117188 -4.609375 5.109375 -4.609375 C 5.429688 -4.265625 5.796875 -3.863281 6.203125 -3.40625 C 7.867188 -1.570312 8.9375 -0.421875 9.40625 0.046875 C 9.875 0.515625 10.285156 0.898438 10.640625 1.203125 C 11.003906 1.503906 11.320312 1.726562 11.59375 1.875 C 12.164062 2.175781 12.726562 2.328125 13.28125 2.328125 C 13.394531 2.328125 13.507812 2.316406 13.625 2.296875 Z M 13.625 2.4375 "/></g></g></g><g fill="#ffffff" fill-opacity="1"><g transform="translate(88.285512, 19.010651)"><g><path d="M -1.4375 -7.96875 C -1.15625 -8.78125 -0.6875 -9.335938 -0.03125 -9.640625 C 0.613281 -9.953125 1.765625 -10.109375 3.421875 -10.109375 C 3.765625 -10.109375 4.632812 -10.09375 6.03125 -10.0625 C 7.050781 -10.03125 7.945312 -9.804688 8.71875 -9.390625 C 9.5 -8.984375 10.109375 -8.40625 10.546875 -7.65625 C 10.984375 -6.90625 11.203125 -6.03125 11.203125 -5.03125 C 11.203125 -3.53125 10.722656 -2.316406 9.765625 -1.390625 C 8.816406 -0.460938 7.570312 0 6.03125 0 L 1.171875 0 L 1.171875 -0.140625 L 1.34375 -0.140625 C 1.582031 -0.140625 1.789062 -0.21875 1.96875 -0.375 C 2.144531 -0.539062 2.242188 -0.738281 2.265625 -0.96875 L 2.265625 -9.625 C 1.066406 -9.601562 0.222656 -9.421875 -0.265625 -9.078125 C -0.523438 -8.890625 -0.722656 -8.710938 -0.859375 -8.546875 C -0.992188 -8.378906 -1.132812 -8.164062 -1.28125 -7.90625 Z M 3.203125 -9.625 L 3.203125 -0.4375 L 6.03125 -0.4375 C 7.25 -0.4375 8.234375 -0.859375 8.984375 -1.703125 C 9.742188 -2.546875 10.125 -3.65625 10.125 -5.03125 C 10.125 -5.9375 9.953125 -6.738281 9.609375 -7.4375 C 9.265625 -8.132812 8.785156 -8.671875 8.171875 -9.046875 C 7.554688 -9.429688 6.84375 -9.625 6.03125 -9.625 Z M 3.203125 -9.625 "/></g></g></g></svg>